<svg xmlns="http://www.w3.org/2000/svg" width="24" height="24" viewBox="68 68 266 266"><g fill="#424242" fill-rule="evenodd" stroke="#424242" stroke-width="8" stroke-linejoin="round" stroke-linecap="round"><path d="m148.6 96.4-.4.4q-.2.3-.5.3l-1 .2q-2 .8-.8.2 1.5-.8.1-.4-1.1.5-1 .7l-.8.8q-1 .5-1.1.8l-.4.2.2-.3q.3-.2.2-.4l-.7.5q-.7.7-.3.4 1.1-.5-.5 1l-1.4 2q-.5 1-.6.7-.2-.3 0 .2l-.1.7q-.3.5-.1-.1 0-.7-.2-.1-.3.4-.4 1.3v.6q.3-.5.2.1c-.2.7-.4 4.2-.3 4.2q.2 0 .2.4 0 .3-.2.2c-.2 0 0 1.2.3 1.9q0 .3.3 0v.3q0 .5.1.3.2-.2.9 1 .7 1.3 2.8 3.4l1.5 1.5-.7-.4c0 .2.4.5 2.4 2.3q.6.5.8.4t0 .1c0 .3 1 1.4 1.4 1.4v-.2l-.7-.6q-.1-.3.5.2l.6.8.2.4q.2.5 0 0-.3-1 1.3.7 1 1 .8 1t-.1.2l.6.4c.7.2 1.4.8 1.3 1.2q0 .5 0 0c.3-.3 2 1.1 1.8 1.5l.6.3q.5.5 0 .3-.5-.1-.1 0 .2.3.4.2l1 .8q1 .8.8.8-.5-.2 0 .4.6.5.4 0 0-.2 0 0 .3 0 .2.3c-.1.2 1.8 2 2.2 2q.3 0 .4.3 0 .7.6.7c.5 0 2.8 2 2.6 2.3l.1.4q.3 0 .1-.2 0-.5.2-.1.3.3.2.5 0 .4.2.2l.5.1q0 .3-.2 0l.1.3q.8.8.3.2v-.3q.4 0 .5.7.2.7.3.3t.3 0l.2.4c-.1.3.5.7.8.6l.4.1q0 .3-.1.1-.5-.1 0 .2.1.3.4.3.2 0 .2.2t.3.5q.8.4 0 1.2-.3.5-.2.7l-.3.4q-.5.3 0-.1.5-.6-.3 0c-.5.3-.7.8-.3.5q.3-.1 0 .2t-.5.2c-.3-.1-.8.6-.7 1a11 11 0 0 1-2.4 2.4q-.2 0 .5-.7.3-.4-1.7 1.5a11 11 0 0 0-2.2 2.5v.1q-.3 0-.2.2v.3q-.2-.1-.3.1v.3q.3 0 .1.7l.1 1.3q.2.8 0 .7-.2 0 0 0v.4q0 .2.3.3v-.3l.3.1.4.6-.3-.2q-.1-.3-.3-.1c0 .3 1.2 1.4 1.5 1.3 0 .2 1 1.4 2.5 2.8q3.4 3.4 2.8 2.4-.2-.3 0-.1t.1.4q0 .4.2.2c.3 0 1.4.8 1.4 1.2l.2.1c.3 0 2 1.7 2 2q0 .3.2.5.4.5.1 0c-.7-1 0-.5 1.2.7l1 1.2h-.3q0 .3.2.3h.5l.2.2q.1.9.7 1 .4 0 .3.1l.4.7 1.8 1.7q1.9 2 1.5 1l.2.5.3.4q.3 0 0-.2 0-.2.5.3 1.1 1.2.2.4l-.4-.4.4.4.4.4c.2-.2.8.3.8.5q0 .3 0 0l-.5-.2q-.4 0 .2.3l1.7 1.7 1.4 1.3q.2-.1-.5-.8t1 .8c.8.9 1.6 1.7 1.5 1.8h.2q.2 0 1.5 1.3l.8 1q-.8-.6 0 .3.3.3.6.2c0 .3 0 .4 1.7 2l.7.5-.2-.5c.3 0 1 .8 1 1v.4q.3.3.3.1l-.3-.5.3.2.6.7-.3-.1q-.2-.5 0 0 0 .3.5.4.5 0 .5.2c0 .1-8.2.2-21.3.2-23.4 0-22.3 0-23.6 1.2l-.8.8c-.3-.3-.6 1.2-.6 3.5 0 2.1 0 2.5-.3 2.7q-.4.3.2 0 .5 0 .5.2t-1.9.1h-1.9l1.4-.1c.7 0-10.7-.2-25.4-.2l-26.6.1q0 .2-.7.4c-2.3.6-3.3 2.8-2.6 5.5q.1.6 0 .2-.5-.5-.2.4.1.6.3.2.3-.2.1.4v.4q.3-.2.3.7 0 1.5.4.9.3-.4.1.2c-.1.7.5 2 .7 1.7q.3-.3.1.1c-.1.5.3 1.4.6 1.3q.2 0 .1.3c0 .3.5 1.5.7 1.4q.2-.1.1.2 0 .4.2.6.4.3.2 0-.2-.8.4.4.3.6.1.5t-.1.1.3.3.3.2q-.5-.2 0 .6l.4.4-.2-.4c-.1-.5 0-.4 1.2 1.2 1.2 1.8 1.4 2 .8 1.4-.7-.8-.7-.4 0 .4l.5.4q0-.3.1-.1.2 0 .1.3v.4q.3.1.5.5.1.3.5.3.3 0 .2.2c-.1.2.5 1 .7.8l.1.3.3.4q.2 0 0-.2c0-.2 1 .7 2.1 1.9s2.1 2.2 2 2.3h.1l.9.5q.6.6.3.4-.4-.2.1.3c.7.7 1.2 1 .6.2l.6.4 3.2 2.6c-.2.2 1 1 1.2.9s1.2.5 2.5 1.3q3.4 2 2 1.4-.4-.3-.4 0l.2.1.8.4c.6.5 1.5.7 1.3.4q-.1-.3.3 0 .9.5.3.3-.5 0-.2.2c.4.4 1.5.7 1.8.6h.1c-.1.3 1.2 1 1.6.8h.7q.4.3-.2.2h-.4q.1.4 1.8.6c1 0 2.6.7 2.2.9q-.4.1.6.4h1.6l1 .6q0 .3.2.3t.1-.2l1.3.2 4.3 1.3 1 .4 1.5.3a7 7 0 0 0 2.7.2c0-.3 1.3-.2 2 0l1.2.2h.6q-.6.4 1.2.5 1.1 0 .7-.2t1-.2q1.2 0 1-.2h.3l.4.3h-.2q-.3-.2-.4 1.9v.8q.2-.2.4.4.5 1 0 .6-.2 0 0 .1 0 .2.2.1l.8.6c1 1 1.8 1 5.7 1 3.6.1 5.4.3 4.5.5l.7.1a9 9 0 0 1 5.6 2.3l.2.2-.3.1c0 .3.7.6.9.5l.7 1.3.9 1.6q0 .5.3.5t.3 1v3.6l.1 1q.3 0 0 0t-.2.7c0 .8-.6 2.4-.6 1.7l-.7 1q-.6 1.2-.4 1.4.3.4-.4.5l-.2.3q-.2.3.1 0 .3-.4.1 0l-.3.2q-.3 0-.7.6-.9 1.5 0 .4l.3-.2c-.5.7-2.8 3-3.6 3.7l-.8.6.8-.7q1.4-1.5-.5 0l-2.4 1.5q-2.3 1.5-.1.4l1-.4c0 .3-4 2-6.3 2.8-1.8.5-3 .6-1.7.1l.8-.2h-1.2l-1.3.4h.2l.5.1-5 .1c-5.3 0-6.6.2-6.6 1.1l.6-.2.8-.4q.2 0-.3.3a5 5 0 0 0-2.1 2.3 181 181 0 0 0 .2 24.7q0-.3.7.5c1 1 4 2 3.5 1q0-.2.2 0c.2.3 3.7.3 16 .4 10 0 13.9 0 10.7.1l-5 .1h11.2l.8-.5c1-.7 2.9-3 2.7-3.4s1.6-2.4 2-2.3l.4-.2q.3-.6-.4 0l.7-.9c1-1 3.6-3.1 3-2.5v.3c.2 0 .7-.5.5-.6l.3-.4q.5-.3 0 .1-.2.3 0 .4c.2 0 .8-.5.8-.7h-.4a27 27 0 0 1 7.5-3.6c-.1.2 1 0 1.7-.3q.4-.3.2-.4h.3c.8.1 2.7-.3 2.1-.5q-.3-.2.7-.1h.6q-.7-.2.8-.5c1.5-.2 3.3-.3 2.2 0q-.4.1 2.7.2h4.2l-1.2-.2q-1 0-.3-.1c.8-.1 3.4.3 3.1.5l1 .1c1.3 0 3 .4 2.5.7q-.2.2.4 0 .7 0 .5.1c-.1.3.5.7 1 .6l-.3-.2q-.4 0-.3-.3c.2-.2 1.8.6 1.8.8-.2.3 1.4.8 1.7.6-.1.4.6.8 1 .6q.3 0 .2.2t.1 0 .3.2q-.1.3.5.5 1.2.5.5-.1-.6-.4 0-.1.4.2.4.4-.1.1.3.5.8.5.6 0 .3 0 .2.3t.9.9q1.5 1 1 .4 0-.2.1 0 .3 0 .1.3 0 .3.3.5.4.1 1.3 1t1.2.9.2.2.2.3c.3 0 1 .7 1 1.1q0 .3.2.3.6 0 .5.7 0 .4.1 0 .4-.5.3.3c.1.5.7 1.5.9 1.4l-.3-.5q-.3-.4-.2-.5l.6.7q1.2 1.9 2.2 2.1l.6.3h-.6q-.5-.3-.5-.1c0 .3 1.3.6 1.4.3q0-.2.1 0c0 .3.8.3 3.3.3h3.3l-3.2-.2 13.3-.1h16.5l1-.6q1.7-.8 2.3-2.7c.5-1.7.4-21.4-.1-22.9q-.7-1.9-1.2-1.7c-.4.2-1.4.3-1.4.1l.2-.3h.2q.1.3.5.1.7.1.2-.5-.6-.5 0-.2.4 0 0-.3-1.1-.7-1.6-.5l.1.1c.4 0 1.3.4 1.2.5l-.9-.2-1.2-.3q-.7 0 0-.2h-3.5c-2.4 0-4 0-3.9-.2h.6q.2 0 0-.1l-.4-.2-1.5-.1h-1q0 .2-.4 0-.4 0-.4-.2.2-.2-.4 0-.8 0-.5-.2.1-.4-.4-.3-.5 0-.1.2.3.1 0 .1-.4 0-.4-.2c0-.3-.8-.6-1.3-.4q-.4 0-.2-.1c.2-.3-1.2-.9-1.5-.7q-.2 0 0 0 0-.3-1-.8a18 18 0 0 1-4.8-3.7q-1.2-1.2-.9-.4.1.2-.2 0-.3-.4-.2-.7v-.4h-.5c-.3 0-.9-1-.8-1.3q0-.4-.4-.8-.6-.7-.1 0v.3c-.2-.1-1.3-2.4-1.5-3v-.4q.5.4 0-.9-.1-.7-.3-.4l-.1-2.6v-3q.6 0 .3-.2-.3 0 .1-1.2c.7-1.7 1-2 1.1-2q.2 0 0 0c0-.3.7-1.7 1-1.6l1.2-1.3 1.8-1.8c1-.8 2-1.7 1.6-1.6q-.8.2 0-.3h.3q-.4.7 1.3-.5 1-.9 1.8-1 .5-.2.5-.4h-.3l-1 .5c-1.6.7.1-.3 2-1.3q3-1.5 2-.7-.8.6.7 0 .7-.4.5-.4-.6-.1 1.4-.7 2.4-.7 1.3-.2-.9.4-.1.2l1.3-.2q1.5-.4.7-.5-.3 0 .6-.3 1.8-.5 1 0h.8q.9 0 1.1-.3t-.6 0h-.8q.2-.3 1.7-.3c1.6 0 4-.6 3.6-.9q-.3 0 .5-.3 1.6-.5.4 0-1 .6.7.1.7-.2.5-.3c-.3-.2 2.5-1.1 2.9-1h.1a25 25 0 0 1 5.9-2.2v-.2h.6q.5-.3 0 0-.5.5.7 0l.7-.5q-.2-.2.4-.4t.1 0c-.7.6.2.4 1.7-.4 2.8-1.5 2.8-1.4 2.5-1.6q-.2-.1.1-.3.3 0 .2.1-.2.4.6 0 1-.5.1-.5l.6-.5q1-.6 1.6-.7l.7-.2h-.6q.2-.3.7-.4 1-.1 2.5-1.3l.8-.6q.2 0 0-.2l-.6.3 2.1-1.7c-.4.6.2.4.8-.2q1-1 .3-.7l.7-.8q1.3-1.4 1-.6 0 .4.1.1.2-.3.1-.4c0-.2 1.3-1.4 1.6-1.5l.5-.2h-.6c0-.3 1.5-1.6 1.6-1.5l.4-.2v-.3q-.2 0-.2.2t-.2.1c-.1-.2 1.3-1.9 1.6-1.8q.2 0 .9-.8 1-1.5.4-1.1-.3 0-.1-.1 0-.2.3-.1l.5-.4q.5-.9 0-.6-.2 0 0 0l.3-.2a5 5 0 0 0 1.3-2l-.4.3-.4.5.4-.8 3-6.2c.4.1.6-.9.5-1.6v-.3q.3.4.2-.3v-.5c.3.5.7-1.4.7-3q0-1.4.1-1.3.4.6.4-1l-.1-1.2q-.3-.1-.1-.8l.1-1.7q0-.8.2-.8l.1-.2q0-.3-.3-.2l-.3-.1-.5-1-.4-.9.5.6.4.4-.7-1-.4-.4c.3.5.3.4-.9-.1l-1-.5h-50.4a2459 2459 0 0 1-49.4-.4q.7 0 .3-.2c-.2-.2 0-.4 1-1.5q1.3-1.3 1.2-1.5 0-.2 0 0a414 414 0 0 0 13.3-13.3l.6-.9a61 61 0 0 1 5.3-5 86 86 0 0 1 9.8-10v-.3q.2 0 .5-.6.7-1.5 0-.3-.4.6-.4.3.4-1.4.6-1.2.2 0 0 0c-.2-.4.1-1.8.4-1.8q.3 0 .3-.3l.1-.7q.1-.7-.2 0l-.3.7.1-.7q.4-1.9.5-1 .2.5 0-.3 0-1 .2-.8l.4-.2q0-.3-.2-.2-.5.3 0-1.3.3-.9.4-.4.2.3 0-.5 0-1 .2-.5.2.9.6-1.2.4-2.3-.2-.4l-.4 1c0-.6.7-3 .8-2.5q0 .3.3-.5t.2-1.6v-.4q.2 0 .2-1.1t-.2-1q0 .3-.1 0l-.5-1q-.4-.7-.3-.8l-.1-.3q-.4-.5-.2 0t-.4 0q-.4-.4-.4-.6c0-.2-.5-1-.9-1.1q-.3-.3 0 .2.5.4 0 .1l-.3-.6q0-.3-.3-.3t-.2-.1q0-.2-.6-.8c-3.2-3.1-4-3.9-4.3-3.8q.2-.2-.8-1l-.6-.5.6.6.6.7-.8-.6c-1.2-1-3.3-3.1-3.4-3.5q0-.6-.7-.8l-.4-.2a17 17 0 0 0-3.6-3.5q-.3.1-.1 0l-.1-.6q-.6-.5-.5 0 .2.4-.3-.2-.3-.3 0-.2h.2c0-.3-.7-.7-.8-.5q-.2 0 0 0c0-.2-.3-1-.6-1v.3q0 .2-.5-.3t-.5-.7c.1-.2-.3-.8-.6-.8v.3c.2.3-1-.6-1.6-1.3q-.6-.5-.7-.8 0-.2-.3-.2l-.2-.1q0-.1-.2 0-.3 0-.5-.3 0-.3-1.3-.3h-1l1 .2c1.1 0 1 .1-1.3.2l-7 .5c-5.5.3-7.5.3-7.5 0H200c-1.6 0-2.8.4-2.7.7l-1.1 1.3q-1.3 1.2-.4.3l.6-.9c-.4 0-1.7 1.5-1.6 1.7l-.1.4q-.2 0 0 0l-.1-.3c-.3 0-2.3 2-2.2 2.3q.1.1-1 1.2-.9 1-.9.8v-.2a11 11 0 0 0-2.7 3c.1.1-1.7 2.1-1.8 2q0-.2.8-1.1 1-.9.8-1c-.3 0-2.2 2.2-2.1 2.5.2.4-.3.4-.7 0q-.4-.6 0-.1.6.3.2 0-.3-.5-.4-.3a38 38 0 0 1-4.3-4.5q.2 0 0 0 0-.3-.2-.2c-.2 0-.8-.4-.9-.8s-.8-1.5-1.1-1.5q-.2.1.4.8l-.4-.4-1.1-1.1.4.3.5.3a15 15 0 0 0-3.4-3.3q0-.5-.5-.6-.2 0-.2-.3a12 12 0 0 0-2.7-2.8q-.2 0-.2-.2-.1-.8-.7-.8-.2 0-1.4-1.1-1-1.1-.5-.7t.2 0q-.5-.6-.7-.5t-1.1-1l-.7-.8h.2c0-.2-3.4-3.8-3.6-3.8q-.2 0 .4.6l.4.6a46 46 0 0 1-5.5-5.6l-1-.5q-.9-.5-.6-.5.5.2.2-.1l-1-.5-1.2-.5h-.5l.3.3q1 .3-1-.1-1.6-.3-.6-.3t.2-.2c-.5-.2-3.6-.2-4 0m2.8 0-2.7.2c.5-.2 2.9-.3 2.7-.1m4 1q.6.4-.4 0-.5-.3-.2-.3zM144 98l-.4.4q0 .4.7-.3.8-.6-.3-.1m14.2 1.7c1 .8 2.5 2.6 2 2.3q-.3-.1-.6.1-.8.5-.8-.3t-.2-.6c-.2.1-.8-.1-.7-.3v-.2q-.8.2-.6-.7.1-.8-.4-.9-.5-.2 0-.2.4.1 1.3.8m-14.8.3v.6q-.1.5.3 0 .5-.3 0 .1-.2.4-.4.2c-.3-.3-.8-.3-.6 0q.1.3-.2 0c-.3-.3-.3.4.1.9q.1.2-.1.3l-.3-.1q0-.8-.2-.6v.5q0 .4-.3.2-.5 0 0-.3.2-.1 0-.1-.6 0 .7-1.4.9-1 1-.3m-3 1.6q-.2.2-.1.4l.3-.2.2-.4zm12 1c1.4.5 4.6 3.1 4.3 3.6q0 .2 0 0 .4.2 2.4 2.2a108 108 0 0 1 6.7 6.9l.5.5-.5-.3-.4-.2.4.6q1 1 .7.3 0-.3.1-.2.2.1.1.4c-.1.3.6 1.1 1 1-.1.2.6 1.3 1 1.3l-.1-.3q-.4-.7.3 0 .3.4 0 .4-.6-.5.8 1c1.6 1.9 2 2.2 2.3 2.3q.3 0 .4.4 0 .3.2.4.3 0 .2-.2l.7.6.8 1v.1l.7.4c.6.6.8 1.1.2.7q-.5-.5 0 0 1.1 1.6 1 1 0-.5.3 0 .4.4.3.6 0 .3.2.5.4.3.3 0 0-.3.3 0l.3.5c-.1.3.5 1 .7.7q.2 0 0 .1l.9 1.3 1 1-.5.4c-.5.4-.7.9-.3.6q.5-.3-3 3.3c-1.5 1.6-2.5 2.3-1.2.9q.4-.6-.4.3l-1 1-.8-1q-.9-.7-1-1h-.2l.5.8q.8.8 0 .2a40 40 0 0 1-4.2-4c.2-.2-1.2-1.4-1.4-1.2q-.3 0-.1-.1 0-.3-1-1.3c-1.1-1-1.8-1.5-1.2-.8q.3.6-.1.1-.3-.2-.2-.4c0-.2-1.3-1.6-1.6-1.6l.2.5.4.4-.5-.3-.4-.5q0-.7-.3-.6h-.2c.1-.3-.7-1-1-1-.2 0-2.8-2.1-2.7-2.4h-.1c-.2 0-.8-.6-.7-.8h-.1q-.3 0-1-.7l-.6-.7.6.5q.6.3-.6-.9l-1.6-1.3.8 1 .2.2-1.4-1.2q-.5-.6-.1-.3l.4.2c0-.3-1.5-1.5-1.7-1.4q-.2.1-.5-.2t0-.2q.7.4-.4-.6-1-1-.8-.4.2.4-.3-.1t0-.2q.3.1.1-.1 0-.3-.4-.3t-.3-.3q0-.5-.7-.4c-.2 0-1-.8-1-1 .2-.2-1-1.3-1.3-1.2q-.3 0-.7-.4-.7-.8 0-.5.5.5 0-.1l-.5-.8q0-.5-.4-.4-.3.2-.2-.4v-.3q-.2 0-.2-1.7v-1.7q.2.1.4-.4.6-1 0-.4c-.5.8-.3 0 .3-1 .8-1.2 2-2 1.6-1.2v.2q.2 0 .3-1l.2.2c.2.3 1 0 1-.3q-.2-.2.6-.2h.2q-.7-.2.3-.3c1.3-.2 1.4-.2 2.7.2m3 .3.3.6q-.2.1-.1.4.3.7-1-.4-.6-.7-.6-1 .3-.6 1.3.4m-9-.2q-.1.3-.2.2-.2 0-.3.2t-.3.3 0-.3 0-.3l.3-.2.4-.1zm.2.6c.1.2-.8 1-1.1 1q-.2 0-.1.3l-.2.4c-.5.4-.3-.2.2-.7q.5-.4.3-.6h.2q.2 0 .2-.2 0-.5.5-.2m-1.6.3q0 .2.2.2.4 0 .2.2t-.6 0 0-.5q.5-.2.2.1m11.5.8q0 .5.1.3c.2-.1.8 0 .8.3s-1 0-1.2-.2c-.4-.4-.3-1.2 0-1q.4.2.3.6m1 2.4q.1.3 1.1 1.4l1 .8a9 9 0 0 0-2.2-2.2m9.5 1 .7.4-1.1-1q-.2 0 .4.5m90.6 1.7-.9.6.5-.2q1.1-.6.4 0l-.9 1.3-.5 1 .3-.8.2-.8-.3.4-1 3v.6q-.3.4-.1-.1.2-.7-.2-.1-.3.4 0 .6.2.3 0 .2t-.3.1-.2.3l-.2.2q0 .2.2.1.3 0 0 .3l-.3.4v-.2q.2-.4-.3.1-.3.4 0 .2h.2c0 .3-.5.7-.6.6l-.5.3q-.5.5 0 .2c.8-.2-.4.9-1.5 1.4q-.9.5-.6.2l.5-.3h.1q-.2-.1-1.2.3l-1.2.5-1 .5-1 .4c-.4 0-1.6 1-1.5 1.1v.1q-.6-.3-.6 1.3 0 1.8.7 1.7l.5.2q.1.3-.2.1-.3 0-.2.1.1.2.5 0c.4 0 2 .5 1.8.8h.4q.5 0 .2.1-.3.3.5.5l2.8 1.6q.5.3.7.2l.3.1q.2.3 0 .1c-.4-.2-.3.3 0 .5l.8.9q.3.5.5.5c.2 0 1.6 2.7 1.5 2.8h-.1q0-.3-.2-.3c-.2 0 0 .8.2 1q.2 0 0-.2l.1-.2c.2 0 .8 1.5.8 1.8q0 .2-.3-.5-.7-1.4-.2.3.2.7.5.7.2-.1.1.1c-.1.4.5 1 .9.8h.2q0 .2.8.1 1.8 0 2.3-2l1.8-3.7q-.4.9.1.4.3-.2.3-.4l.5-1q.9-1.2.1-.7-.4.4 0 0 .1-.3.5-.3.2 0 .3-.2.1-.4-.2-.2-.5.2 0-.3c.4-.4.9-.5.6-.2q-.2.5.7-.3c.7-.5 2.6-1.4 3-1.4l.2-.2q0-.5-.7 0-.4.3-.7.3t.4-.4l1.1-.3q.4.1 1-.1.7-.5-.7 0-.2 0 .3-.2l2-1q-.7.8-.1.5c.6-.4 1.5-2 .9-1.7q-.2.1-.2-.2t-.2-.8q0-.6.1-.4h.3q0-.2-.3-.2t-.8-.4-.2-.3q.4 0 .1-.2-.2-.3-.4-.3l-1.3-.5-1.7-.6-.6-.1c.2-.2-.3-.6-.7-.6v.3q0 .1-.2 0v-.3l-.5-.5q-1.3-.8-.3 0 .5.5.2.4-1-.6-1-1.2l-.1-.2h-.5c-.2-.1-1.6-2-1.4-2l.5.5q.4.7.5.6l-.2-.4-.4-.8q0-.4-.4-.4-.3 0-.1-.3c0-.4-.7-2.2-1-2l-.3-.4q-.4-1.1 0-.3.3.5.3.2c0-.4-.5-1.3-.6-1q0 .3-.3-.2l-.2-1v-.3q-.2 0-.2.3.2.3-.4-.1-.4-.4-1.2-.4-.9 0-.2-.2.5-.1.2-.3-.4 0-1.1.4m-89.3.4.5.5zl-.5-.7v-.1zm1 0c0 .2.9 1.1 1 1l-.5-.6zm-8 .9 2.5 2.5-1.3-1.4-1.7-1.7zm98.9 0-.3.2q-.4.2-.1-.6zM147.7 115l-.4-.2q-.3-.4-.2.2 0 .1-.2 0-.2 0-.1-.2l-.3-.6q-.5-.8-.3 0 0 .3-.1.2-.2 0-.1-.2l-.1-.4q-.2-.4-.2 0 0 .6-.2 0v-.7h-.1q-.5 0-.6.2l.3.1v.2h-.4c-.2 0-.2-.7 0-1.1s3.2 2.1 3 2.5m65.5-1.7q0 .2.5.1l.6-.1c0-.2-1-.1-1 0m-65.7.7.5.6-.5-.4zm61.6-.3h1.1zm-45.3.2q0 .2.4.6l.3.1-.3-.5zm38 0q-.9.3-.1.2l1-.1c.6-.2-.1-.2-1 0m18.7.9q1 1.1 1.2 1l-.5-.7q-1.7-1.5-.7-.3m-20.8-.4h-1zm-33.5.2.2.4q.2.8-.6 0-.6-.7-.1-.5zm53.6.2.3.4-.6-.4-.2-.3zm-78.4.1.3.1q.2.3.4.2t.2.4q-.1 1 .4.5.2-.6.4.1 0 .5.4.5.2-.1.2.3-.1.5.1.2c.4-.3.4.3 0 .6-.2.2-1.2-.7-1.2-1q0-.2-.3-.2c-.3 0-1-1-.7-1q.5-.1-.2-.4-.5 0-.5-.4-.2-.3.2 0 .3.3.3.1m-1.1.5q.4.7.3 0-.1-.3-.4-.4zm81.5 1.2.5.8q-.1.2-.3 0-.2-.4-.2 0 0 .3-.3.5-.4 0-.1-.2.3-.4 0-.6-.3-.4.1-.2t0-.3q-.7-.5-.4-.6zm33.3 0q0 .6-.3.5t0 .3v.3q-.7-.2-.7.3v.1h-.4q-.6.4.2-.6.6-.7.8-.7t.3-.3-.2 0h-.2l.1-.4q.5-.3.4.5m9 1.7q.4.3 0 0h-.6q-.2 0 0 0-.1-.5-.8-.6v-.6q0-.4.6.3zm-5-.4v.2c-.2.5 1.7 3.1 2.4 3.4q.3 0-.4-.6l-.7-.8.8.7 1 .9h-.3q0 .3.5.5.5 0 .5.4l.2.2.6.3q.4.3.5.1h.5q.6 0-.7.6l-2.1 1.4-1 1 .9-1q.8-.8.6-.9c-.3 0-2 1.8-2 2v.3q-.5-.2-1.1 1.2c-.7 1.4-.7 1.4-1.2.5q-.2-.6-.5-.6v-.1c0-.3-1-1.7-1.3-1.6l-.7-.5q-.6-.7 0-.1.5.3.5.1c0-.3-1-1-1.4-.9q-.2 0-.1-.1l-.1-.2-1.5-.5q-1-.6-.8-.6l.7.2q.4.2.2 0-.1-.3.2-.4c.8-.4 1.6-1 1.5-1.1q0-.4.9-1.2l1.5-1.7q.5-.8.7-.8.3 0 .4-.4 0-.6.4 0 .2.2.4.1m-115.8.6.5.3q.2-.1-.4-.4l-.5-.4zm112.9.4q.1.8-.4.4t0-.7q.5-.7.4.3m.4.2q-.3.3 0-.1v-.6l.2.1q0 .4-.2.6m-63.4-.2q-.5.5-.6.4s.8-.8 1-.8zm64.1.2-.6 1c-.3.5.5-.3.9-1q.7-1.3-.3 0m-62.9.2-.3.6-.4.6q0 .2 0 0l-.5.2q-.4.5-.3-.4c0-1 1-1.8 1.5-1m66.1.9-.4-.5-.5-.7q0-.2.5.4zm1.6-.8q0 .3-.2.1-.2 0 .2.3c.6.5.7 1.2.2 1.2l-.4-.2q0-.2.2-.1l.1-.2v-.5l-.4.3q-.1.6-.7 0c-.3-.3-.5-1-.2-.8q.2 0 .3-.2c.1-.3.8-.2.9.1m-45.5.3q.2.2 0 .4c0 .1.4.7.6.7q.2 0 0-.2-.1-.5.6.3.6.7 0 .2-.4-.3-.4-.1 0 .4.9.6l.1.4q0 .3.1 0 .2-.3.3-.2c2.7 2.6 4.4 4.4 4.3 4.6l.1.3q.2.1.2-.2t.5.2.3.6q.3 0 .7.4.6.5 0 .3t0 .1q.3.3.5.2l.8.6q.9 1 .1.4l-.5-.5q0-.2-.3-.2t.4.6l.9.5h.2v.3c-.4 0 .3.6.8.7q.7 0 .8.8 0 .5.3.6l2 1.9q1.6 1.5 1.9 1.6c.4-.3 4.4 3.8 4 4-.3.3-.6 1.3-.3 1.3v.9q-.2.8-.4.9v-.3q0-.1 0 0-.3.1-.3.5 0 .6.1.2.5-.6 0 1.3-.2 1.2-.4.4-.2-.5 0 .2l-.4 2.8c-.2 0-1.1-1-1.1-1.2l.3.2q.7.5-.3-.6-1.3-1.1-.4-.1l.3.5c-.4 0-1.3-1.1-1-1.2l-.3-.5q-.5-.3-.2 0c.6.6.1.5-.6-.2s-1-1.2-.3-.7q.7.5-.2-.4-.5-.6-.3 0t-.3 0-.2-.5q.1-.1-.7-1l-1.1-.7q-.2 0 0-.2 0-.2-.2-.3t-.6-.5l-.7-.4-.4-.1q0-.2.1 0 .5 0 0-.5l-.5-.2h-.3q-.1-.2 0-.2h.3c0-.3-.7-.7-.9-.5.2-.3-.3-1-.6-.8q-.3 0-.2-.1c.1-.2-.4-.8-.6-.8q-.8.1-.5-.2c.4-.2 0-.6-.4-.4q-.3 0-.6-.4l-.3-.4v-.3q-.3-.4-.6-.4t-.3-.3-.3-.5q-.5 0 0 .3l-1-.8-1.2-1.3 1 1 1 .7a12 12 0 0 0-3.3-3.1q-.2 0-.1-.2c0-.2-1-1.2-1.4-1.1v-.2c.1-.2-.6-1-.9-.9l-.3-.1q0-.3.1 0 .3 0 .2-.2t-.5-.3c-.5 0-3-2.3-2.9-2.7q0-.1 0 0-.4.2-.3-.4 0-.3-.2-.3v.3l-2.4-2.2-2.6-2.5h.8q-.3.3 0 .5t.3 0l.6-.2q.6 0 .2-.2h2.4q2.9 0 2.6-.1v-.3q.3 0 .3.2c0 .2 2 0 2-.2.2-.3.8-.2 1 0m71.6.2h-.5l-.4.2q-.1.3.2.2.6-.5 0 .7l-.5 1-.2.4q-.2.1 0-.4.4-.9 0-.7l-.3.6q0 .7-.5 1.4l-.4 1c0 .5-1.3 2-2.3 2.7l-.2.2 1-.5q1-.7.5-.1c-.5.5-4 2.2-4.2 2h.2q.2 0 .1-.2c-.2-.2-1.5.3-1.4.6q0 .3-.3.2c-.4-.1-.9.5-.6.8h-.2q-.3 0-.3.8 0 2.2 2.7 2.5c.8 0 3.2 1.3 3.1 1.6q0 .2.3.1c.3-.1 1.8 1.9 1.8 2.5q0 .2-.2.1l.2.6q.3.7.5.4t0 .1c-.1.5.3 1.7.6 1.7q.3 0 .2.4v.1q.3 0 .2.2t.2.6.3 0 .2 0q.4.3 1 .3.9 0 .6.2-.5.2 0 .2t1.3-1l.3-.5q-.5.3 0-.9.4-.9.2 0-.1 1 .4-.4v-.5c-.7.4 1-2.6 1.8-3.6.6-.6 1.4-1.1 1.1-.7q-.5.5 1.3-.4l1-.7-1 .4-1 .4 2.2-1.2 2.7-1.4v-2q.2 0 .2.3t.2.4q.5.2-.3-.9-1-1-.8-.4 0 .2-.2 0-.3 0 0-.2c.2-.2-1.2-.8-1.6-.7q-.2 0-.1-.2c.1-.3-.8-.6-1.1-.3q-.3 0-.1-.2t-.2-.1h-.2q0-.2-.4-.5-1.1-.7-.3 0 .7.6-.3 0-.8-.4-.8-.6h.3l-.1-.2-.6-.5q-.6 0-.2-.2t0-.1q-.4 0-.8-.6c-.5-.8-1-2.3-.8-2.1q.4.1 0-.5-.2-.5-.2 0l-.3-.4-.2-.8.2.4q0 .3.3.4c.2 0-.5-1.5-.9-1.8q-.4-.3-.2 0 .1.3-.3 0c-.5-.4-1.5-.5-1.9-.2m-40.2 1-1.2.4c-.2 0 .7-.6 1.2-.7q1.8-.7 0 .2m21.6 0c-.1.1-1-.1-1-.3h.5zm-78.7.1q-.3.7.2.1.7-.5.2-.5zm64.8.3-.6.7 1-.7q1.2-1.4-.4 0m-55-.1q0 .4.2 0 .4-.3.4 0l-.2.2c-.3 0-.2 1 0 1.2q.4.3.4 0v-.2c.2.2.5 1.3.4 1.3-.2 0-1.6-1.6-1.6-1.8h-.2l-.2-.1q0-.2-.2-.2t0 .4l.3.7.2.2a127 127 0 0 1 11.9 11.7q.4.4.6.4l.4.1q0 .2 0 0-.6 0 0 .5.4.5.4 0-.2-.4.3.2.3.3 0 .2-.5-.2 0 .4.6.5.4 0 0-.2.8.6 1 1 .7 1-.3.3 0 .1.3 0 .7.3l.1.2q-.7-.5-.4 0l.6.3q.3-.1 3.5 3.1a42 42 0 0 1 4.2 4.4l-.2-.3q-.3-.1-.2-.2c.2-.2 1.1.7 1 1l1 .7.8.8-.8-.6-.9-.6c-.2 0 1.3 1.4 1.6 1.4q.8 0 .6.6 0 .4.2.3.3 0 .4.2c.1.4 2.3 2.5 2.6 2.4q.2 0 .2.2l.5.7.5 1q0 .5.3 0l.4-.4-2.7 3a20 20 0 0 1-3.2 2.8 34 34 0 0 1-5.4 5.5c.1.2-.4.7-.6.5.2.3-.7 1.1-1 1 .2.2-.5 1-.7.8q-.2 0 0 0a285 285 0 0 1-16 15.8c.3.3-1.4 2-2 2q-.4 0-1.3-.8-1.3-1.4-1-.7 0 .2-.4-.2-.5-.3-.4-.7l-.3-.6q-.4-.3-.4 0l.3.3.3.3q-.1.1-1-.8l-.9-1q0-.4-.6-.5l-.2-.4q0-.4-.4-.4-.3 0-.4-.4 0-.3-.4-.5-.5-.1-.4-.2.2 0 0-.2 0-.3-.2 0-.1.1-1.6-1.3-1.3-1.3-1-1.2 1 .7.2-.1-.4-.5-.7-.4c-.3.1-.8-.5-.7-.9q0-.2-.2-.1c-.3.1-.8-.3-.6-.5l-.7-.9-1.5-1.5q-.7-.7-1-.6t-.3-.4-.4-.4-.4-.3l-1.4-1.6-1.7-1.7q-.8-.7-.6-.1.1.2-.2 0-.5-.6-.1-.4t0-.4q-.7-.5-.5 0 .1.2-.2 0l-.3-.5q0-.2.2 0 .3.5.1 0l-.3-.3q-.6 0-.7-.6 0-.3-.3-.4-.2 0 0 .2 0 .3-.2 0-.6-.5-.2-.3.5.2 0-.4-.4-.3-.6-.2l-.2-.6q-.6-.5-.4 0t-.4-.3 0-.2q.3.3.2 0-.2-.3-.8-.5-.7 0-.3-.3.5-.1 0-.3-.6-.5-.5 0l-1.2-1.1q-1.3-1.3-1.3-1.5c.1-.3-1.3-1.6-1.5-1.4q-.3 0-.1-.1 0-.3-1.2-1.5c-1.5-1.5-1.5-1.3-.2-2.5l.8-1q-.2-.2.3-.7.4-.6.6-.5l-.3.5-.2.4q.3 0 .5-.5t.5-.5v-.2q-.3 0 4.2-4.6l4-4q-.5.7 0 .5c.3-.1.7-.8.8-1.1q0-.2.2-.2c.2 0 1-.8 1-1l.1-.1c.4-.1 1-.7.8-.8-.1-.3.5-.8.7-.7h.1c0-.2.6-1.1 1.4-1.7q.3-.2-.4.6-1 1.2.3-.2 1-.9 1-1.2t.1 0q.4 0 .5-.6 0-.2.3-.2l.3-.2.2-.4.2-.2q.3 0 .4-.2l.2-.4.2-.2c.3 0 3-2.5 3-2.7l-.8.6-.7.5 1-1.2 1-1.2v-.2q.5 0 1.7-1.3 3.1-3-.1.5c-1 1-1.9 1.9-1.8 2l4.8-5-.7.6q-.4.2.8-1c1.1-1.3 2-1.7 1.5-1q0 .2.2 0t0-.4q-.3-.1.5-1 1.3-1.1.5-1c-.6 0 .5-.5 1.2-.6q.8-.1.5.4m8.6 1.5q1.6 1.7 1.9 1.7s-3.4-3.6-3.6-3.6zm10.3-.9q-.5.3-.7-.3c0-.4.6-.5.8-.1zm-63.1 1 .9.8h-.8l-.4-.4q-.4-.2 0-.2h.1q0-.2-.5-.2-.3 0-.3-.2.1-.1-.3-.7-.5-.8-.6-.2v.4l.4.1v.1h-.5c-.4.3-.4-.7 0-1 .3 0 .4 0 2 1.4m41.9-.6-1.8 1.8q-1.2 1-.8.2.1-.5-.1-.3-.3.1-.1 0 .1-.3.4-.3t.3-.2l.2-.2c.3 0 .9-.8 1-1.2q0-.8.7-.5l.6.3zm-.6-.4q-.3.2-.3.5t.3-.1q.8-.9 0-.4m.9.9q-.4.3-.4.5l.6-.4q.8-1-.2-.1m-1.8 0-.3.2-.3-.1q0-.3.3-.3t.3.2m-23.9.9.6.6q.5.4 0 0-.1-.5-.5-.8t-.1.2m9.8 1.7q2 2.1 1.1 1.5h-.7q-.5 0-.2.1.2 0 0 .3l-.2-.2-.6-.6q-.3-.3.2 0 .7-.1.2-.5v-.3l-.4-.4q-.3-.2-.4 0l-.3-.2-.2-.5q.3-.6-.4-.3-.2.4-.2-.3c0-.7.3-.5 2 1.4m-24-.4 1.5 1.3q.3.1.3.4-.2-.3-.4 0-.1.3-.1 0 0-.4-.2-.4l-.2.4q0 .6-.3 0l-.5-.2q-.2.1-.1-.2 0-.4-.3-.3-.5.2-.3-.4l-.1-.7q-.3-.3-.1 0l-.1.7q-.2.5-.2-.3 0-.6-.3-.6t-.3-.3q0-.5-.3 0h-.3q0-.4 1-.4.3 0 1.4 1m72.4 1.1 1.6 1.7-.8-.1q-1 0-.4-.3.9-.2-.4-.2-.7.1-.6-.8 0-.2-.6-.1l.2-.3q.5-.4 0-.2l-.3-.1q0-.2-.2 0-.2 0-.2-.2c.2-.4-.6-1.2-1-1l-.2-.2h.2q.2 0 .2-.2 0-.5 2.5 2m21-1.8q.4.3.1.4-.3.3 0 .2l.2.2h-.3q-.5-.2-.2-.6l-.5.2q-.7.4-.7.1 0-.2.3-.1.3 0 .1-.3 0-.4.2-.2h.4q-.1-.4.4 0m1.1-.2.5.4.5.2q0-.2-.5-.4zm-100.7 1q.3 0 0 .1l-.6-.3-.1-.2.3-.1q0-.3 0 0zm22.9-.5v.2q.3 0 .3-.2.2-.2 1.2.1.8.4-.3.5h-.6l.5.2q.6.1.8 0v.4q-.3.8.3.2.2-.3.2 0l.3.2q.3 0 .3.6t-.2.6v-.3q0-.1-.1 0-.2 0-.1.4.2 1.1-1.4-.8-1.7-1.8-1.4-2.2.3-.2.2.1m7.8.7.8.8q.7.4-.2-.5-1.3-1.4-.6-.3m19.8 1q1.5 1.6 1.7 1.6l-1.4-1.5q-1.4-1.5-1.7-1.6zm65.8-1.2q-.2.4.1.4c.8 0 0 .6-.8.7l-.8.4q-.5.5-.8.5-1.4 0-1.3-.2t.2-.2v-.4l.1-.4q.3 0 .2.6 0 .1.2 0 .2 0 .1-.2l.1-.2q.2 0 .2.2t.1 0l.6-.2q.5 0 .5-.2t-.2-.2q-.7 0-.8-.2c0-.2.9-.1 1.1.2q.2.3.3.1h.2q.3.3.3 0l-.2-.5q-.1-.3.8-.6zm-116.5.2q.3 0 .3.2h-.3q-.3 0-.1.3l.2.3h1q1.6.1 1.6.6 0 .1-.2 0h-.2l-.1.4q-.1.3.4.4l.4.3q0 .2.5.3.7.1.3.5-.6.3-.1.5.2 0 0 0 0-.3.2-.4.4-.1.1.4-.4.9-.7 0-.3-.3 0-.6.2-.4-.2 0-.6.6-.4 0v-.4q-.3 0-.1.1v.2q-.6 0-.2-.5.5-.4-.2-.2-.5.2-1-.4-1.1-1.1-.3-.6.5.3 0 0-.1-.5-.5-.3l-.7-.6q-.8-1.2-.3-.7zm7.4-.2c0 .2.7.9.8.8l-.4-.5q-.3-.5-.4-.3m51.2.4v.1q.3 0 1 .7l1 1q.3.3 0 .5-.4.1-.8-.3t-1-.3 0-.2v-.3h-.3q0-.2.3-.2l-.2-.3a1 1 0 0 1-.4-.8q0-.6.3-.3t.1.4m38.3-.4v.2q-.4.3-.1.3v.4q0 .4.7 0h.4l-.3.4q-.4.3-.4 0h-.2c-.2.1-1.7-.5-1.7-.8s.8-.7 1-.6zm-61.5.8q0 .5-.2.5c-.3.1-.3-.6 0-.8q.4-.3.2.3m24.3-.3.6.6.7.6-.6-.7q-.7-.8-.7-.5m39.5.6q.2 0 0 0 0 .3-.4.2l-.2.1-.1.5q-.3.3-.3 0h-.2l-.3-.2q0-.4.3-.2c.4.1.6-.4.2-.6q-.2 0-.1-.3.1-.1.5.2zm-64.3.4q.1.6-.4.4h-.3q0 .3-.2.3t-.3.3q0 .2-.2.1l-.2.2q0 .3 0 0c-.2-.2 1.2-1.8 1.5-1.8zm-33.2 0c0 .2.5.4.5.1l-.3-.3q-.3 0-.2.1m-1.9.3.3.5h.3l-.3-.4q-.2-.3-.3 0m73.8.2-.6.4q-.6.2.1 0 .6-.1.4.5 0 .4.1.3c.3-.4 1.4.5 1.2 1q-.1.5-.5 0-.4-.3-.3-.5 0-.2-.2-.2c-.7 0-1.6-1.3-.9-1.3q.4 0 .5-.3t.2-.3zm63.6 1q0 .5.4.7.3 0 1.4 1t.6.7l-.6-.4.6.6.7.6-.6.3c-.7.4-1.8 1.5-1.8 1.8l.5-.2.4-.4-.4.5-.5.3c-.1-.1-.8.6-.7.8l-.1.6q-.4.8-.5.2-.1-1-.5-1.5l-.5-.3-.4-.2q-.3-.2.1-.2.5.3.1-.2l-.5-.2-.5-.2q-.3-.5 0 0 .5.2.3-.1-.1-.3-.5-.3t-.5-.2q-.1-.7-.5-.7l.2.4q.3.3 0 .2l-.6-.3q-.9-.3.4-.5.8-.1.7-.4 0-.1 0 0c.4.2 1.2-.3 1-.6l.1-.4h.1v.3c.3 0 1.1-1.2 1.2-1.7l.3-1 .2-.5.3.6zm-110.4-.8-.1.2v.4q-.3.3-.1.5.5.8-.3.3-.8-.9-.2-.7h.3q0-.6.3-.8l.2-.2zm34.6 0 .6.6q.5.3-.1-.3-1-1-.5-.3m53.3.1-1 .6q-1.8.9 0-.2 1-.6 1-.4m-15 1-.6-.2q-.6-.2-.6-.4l.6.2zm-44.7-.2q.3 0 .5.5t.4.5.4.3q.4.7 0 .5h-.1q0 .3.4.2h.4q0 .3.3.2 0 .3.3.7t.1.3l-.3.1q-.1.2-1.9-1.5t-1.5-1.8h.3q0-.4.2-.1.1.2.5.1m76 .3q-.5.3-.3.7.2.2 0 .2t-.3-.2q-.1-.4-.9 0-.3.3 0-.1l.4-.3q.2 0 .3-.2t.3-.2h.3q0-.3.4-.1zm11.7 0q-.2.2 0 .4l-.1.2c-.3 0-.5-.5-.2-.6q.7-.3.3 0m1.4.7q.4.4-.3.5h-.4v-.2a.2.2 0 0 1-.3-.2q0-.2.4-.1t0-.2l-.4-.4c0-.1.8.3 1 .6m-105.4.3c.1.1-1.4 1.8-1.6 1.8l-.3.3c0 .4-.7-.2-.7-.6s.8-.6 1-.3q0 .2.2 0v-.3c-.4 0 0-.7.4-.6q.3 0 .5-.2h-.1q-.3 0-.3-.2.1-.9.5-.3zm99-.3c.3.5 1.1 1.2 1.1 1q0-.3-.6-.8t-.4-.2m-62.6.7q0 .2.1 0l.7.3q.3.3.1.2-.3 0-.3.2t.3.2h.2q-.1.6-1-.3-.9-1-.3-1zm31.2.1q-.2.7-.4.1-.1-.3.1-.3t.3.2m-.3.8q.1.2-.2.2l-.3-.6q0-.4.1-.1zm-51-.1.5.3c.1-.2-.4-.7-.6-.7zm-50.9.5.5.3v-.3l-.5-.3zm136.6.3q-.3.4-.4-.1 0-.3.3-.2t.1.3m-7.5.7.7.5q.4.1.1.4t.2.2l.4.1q0 .2-.2.1h-.2q0 .3-.3.2t-.3-.2q-.1-.6-1-.3-.4.4-.1-.3.1-.5-.2-.3-.4 0 0-.2v-.4l.2-.2zm-96.2-.1-.6.5q-.6.7 0-.3.5-.4.6-.2m108.9 1.2q-2.3 1.2-.3.5l1.4-.8q.8-.8-1.1.3m-120.3.7-1.5 1.7 1.3-1.2 1.6-1.6q.1-.4-1.4 1.1m83-.3-.4.5.1-.6q.7-1 .3 0m-92.2.1.7.5q.2 0-.3-.5-1.2-.9-.4 0m53.8 3.2h-.6q-.6 0-.6-.2t.2 0q.2 0 0-.3-.2-.5-.5-.5-.6.1-1.1-.4c-.5-.3-1-1.1-.6-.8l.3-.1v-.2q-.2 0-.2-.2t-.3-.4l-.4-.4q.2 0 1.9 1.6zm-52.6-1.7q2.2 2 .8 1.7l-1 .1q-.5.2-1-.3c-.4-.4-.5-1-.1-.8v.4q0 .2 0 0c.6-.4.2-1.3-.5-1.2l-.6-.1c-.1-.3.4-1 .6-.8l-.2-.3-.4-.5.5.3zm69.2-1.1.4.4c.2 0 2.5 2.2 2.5 2.4q0 .3.2.3l.2.2h-.5q-.4 0-.4-.3.1-.3-.2-.2t-.4-.3q0-.8-.7-.5-.8.3-.8 0t.3-.2h.3q0-.2-.3-.2t-.1-.3-.4-.5 0-.1q.5 0 0-.2-.3-.2-.2-.4 0-.1-.2 0-.6 0-.4-.4.3-.3.7.3m44.8.5q.3.7-.4.2t-.4-.8q.4-.5.8.6m3.3-.6q-.3.3-.5.2.1-.3.7-.5zm-2.9.2v.4q.3.3 0 .4l-.1-.4q-.4-.4 0-.5.2 0 .1.1m-23.6 1.2v.6l.2-.4q.2-.5.1-.7zm-40.5-.2.1.4q.5.1.3-.4-.3-.2-.4 0m-58.8.3.7.7q.8.5 0-.3-1-1-.7-.4m132.2.2-.1.3.5-.3.2-.4q-.2 0-.6.4m-7.4.4q0 .3-.3.7l-.3.1-.2-.4q-.5-.3.1-.4l.6-.2zm-53.4.2c.1.3 1 1 1 .9l-.5-.6q-.5-.5-.5-.3m27.2.7q-.9 1-.1.3t.7-1zm-94 .2q-.3-.2-.3-.5l.2.2q.2.3.5.2l-.2.3q-.5.5 0 .4t.7.4l.2.5v-.5l.1-.5q.3 0 .1.3 0 .3.2.4.4.2 0 1-.5.3 0 0 .2 0 0 .1c-.2.4-.5.3-2-1.2-1.3-1.2-1.5-1.4-1.2-1.5q.5-.1.3.2 0 .3.2-.1l.2-.5.6.6q.5.5.4.2m120.6-.3q-.1.3-.3 0 0-.3.1-.2zm-72.4 0 .4.6.5.3-.5-.6zm-33 .9q.5 0 .1-.3-.3-.4 0-.2.3 0 .5.4.1.3.4.2l.4.1q0 .2-.2.2t-.2.2l-.2.3-1 .9q-.7.7-1 .6v.2q.2.3-.1.3t-.2-.1q0-.4-.7 0h-.4q-.2-.3 0-.3t.2 0q0 .3.3 0h.3l.3-.2q.3-.2.2-.6l.1-.5q.3 0 0 .2 0 .2.1 0 .3 0 .3-.4t.2 0 .2 0 .3-.3q.2 0 .1.3-.3.4.5-.3.3-.3 0-.2c-.3.3-.8.1-.6-.2q0-.2-.2 0-.6.5-.4-.7.2-.7.2 0 0 .4.5.4m35.6-.6c-.1.2 1 1.4 1.2 1.4l.1.3v.1q.5-.5.7 0l.3.2v-.4l.3.4q.3.4 0 .3l-.3.3q-.3.4 0 .5.4.2.4.5.3.7-1-.5l-1.4-1.6-.4-.2q-.4-.1-.8-.7-.6-.7-.1-.5h.3q0-.3.4-.3t.3.2m20 .9q0 .5.2 0c.2-.2.2-.2.3.8q0 .3.3.4l.3.7.1.5q.2 0 0 .2-.3.5-.4 0 0-.4-.5-1t-.3-.8q0-.2-.1 0c-.4.2-.8-.5-.5-.7q.4-.3-.1-.1c-.7.1-1.2-.6-.5-.8q1-.4 1.2.8m-15.4 0q0 .3-.4.1-.3 0-.3-.2c.2-.3.7-.2.7 0m16.8.7q-.2.2 0 .4h-.2q-.2 0-.1-.3 0-.2-.2-.2-.5 0-.2-.5c.3-.2 1 .3.7.6m-58.5 2.2q0 .2-.2.2l-.4.3q0 .3-.3.3t0-.2 0-.2 0-.3q.7-.5.9 0m57.5.3q-.3.2 0 .4t0 .2l-.2.2q0 .2.2.1c.2-.1.1.8-.1 1q-.3.3-.3 0t-.2-.2v-.2q0-.4.2-.2 0 .3.2.3v-.5c-.3-.5 0-1.6.2-1.4q.3.2 0 .3m-7 1.9v.2q-.2 0-.7-.6l-.6-.6.6.5zm57.6-.7q0 .2.3.2l.6.1h.3q0-.3-.6-.4zm-66.6 1.4 1.5 1.3-1.2-1.3-1.5-1.4zm9 .1q1.8 1.8.8 1.3-.4 0 0 .2.3.4 0 .3-.7-.2-.5-.8 0-.3-.4-.6-.7-.6-.3 0 .2.4.4.3l.2.1q0 .2-.2.2c-.2 0-.8-.6-.8-.9q0-.3-.3-.1-.2 0 0-.2.5-.4 0-.3l-.2-.3q-.3-1 1.3.8m6.3 1-.1 1c-.2.1-.4-1.1-.3-1.6q.5-1 .4.5m-4.3 1 .5.8-.3-.3q-.3-.5-.6-.2l-.3.2q-.4-1.7.7-.5m-65 .2q-.4.1-.1.4c.2.2-.2.8-.8.9q-.8.2-.6.6l-.2.2v.1q0 .2-.4.2l-.4-.1c0-.2 2.5-2.6 2.6-2.5q0 .2-.2.2m69 .5.2.3c.3.1.3.8 0 .7q-.4 0-.5-.5 0-1.3.3-.9.3.3 0 .4m-1.2 0-.2.7q0 .3.1.2c.3-.3.5-1.3.3-1.3zm39 .3.5.3q.6.1-.1.2-1.1 0-1.9.7-.4.5-.5.2l-.3.2q-.2 1 .2.4.3-.3.1 0l-.4 1.4-.6 1q-.3 0-.3.2 0 .1.2 0v.7q-.7 1.8-1 1.8c-.2 0-1 1.2-1 1.5l.4-.4q.8-1 0 .5-.5.7-.7.6l-.3.2v.3q.3 0 .2.2-.2.3-.3.1l-.8.6-1 1q-.4.2-.3.4.2 0 1.1-.9t1-.8a10 10 0 0 1-2.6 2.4q-.3 0 0-.2.5-.2 0-.2-.2 0-.3.4c0 .4-3 1.9-3.2 1.5q-.3-.3-.1 0 0 .4-.5.6-.8.3-.3 0 1-1-2.2.6-1.6.7-.6.5h.2q-.3.3-.6.2c-.4-.1-.9.4-.7.7q.2.2 0 .1-.5-.3-.6 1 0 1.6.6 1.5.2 0 0 0l.1.6q.6.5.5.1l.7.1q.8.3.6.4l-.6-.1q-.7-.3-.1 0 .4.5.8.3l2 .4 2.9 1.5q-.5 0-.1.2.2.3.6.2h.3c-.2.2.4.9.8.9q.4 0-.2-.4l-.2-.3q1 .6.9 1l.6.7.8 1q0 .3.4.3.3 0 .6.4l.3.5-.4-.4q-.8-.8-.1.3.2.4.4.3c.3-.1 1 1.5 1 1.8v.2l.4.4q.4.8 0 .5-.2 0-.1.2l.3.2.3.3q0 .2-.1.1-.4-.2.2 1.3.4.9.6.9v.3c0 .4.3 1.2.6 1v.2q0 .2.5.7l.4.3q-.3-.4.3-.1c.7.2 1.9.1 2.3-.3q.7-.5.4 0-.3.3 0 .3a13 13 0 0 0 1.8-3.8v-.3c-.4.5 0-.5.7-2q.6-1.4.9-1.4c-.1-.3 1-2.5 1.5-2.7l-.3.5-.3.7 1.4-1.8q.2-.8.8-.8.4 0 1-.4 1.4-.8.5-.5c-.8.3.2-.4 1.9-1.2q2.8-1.5 1.9-.6-.6.4 0 .2l.5-.1q.2 0 .1-.3l1-.7 1.4-.9.4-.2v-.4q0-.7.2-.2 0 .6.3 0c.3-.7 0-2.2-.5-2l-.4-.1q-.2-.4-.8-.6-.5-.3-.4-.5t-.1-.1c-.2.1-3.5-1-3.3-1.2l.6.1q1 .4-.1-.3l-1-.2q-.3 0-.2-.1 0-.2-.2 0-.3 0-.2-.1 0-.2-.5-.5-1-.6-.7-.1h-.3q-.3-.2-.3-.5.2-.4-.3-.3l-.5-.1c0-.4-1.6-1.9-2-1.9l-1-1c-.7-1.3-1.3-2.6-1-2.4q.4.3 0-.8-.4-.8-.6-.5t-.2.1v-.6q-.3-.5 0 0 .4.4 0-.7l-.3-.8q0-.4-.2-.1-.2.2-.3-.3l-.3-.8q0-.5.1 0c.4.4.3-.3-.1-1-.5-1-2.6-2.2-2.6-1.5m-101.3.7c.4 0 .4.1-.9 1.4-1.1 1.2-1.3 1.3-1.6 1h-.2v.3l-.3-.4v-.3q.4 0 .6-.2t.7-.3q.3 0 .2-.1-.2 0-.2-.4v-.2h-.3q0-.3.2-.3h.5q.8-.2.5-.8zm69-.3-.2.6q-.2.4 0 .1.3-.2.2-.6m-2 4.2.1.3q.2 0 .1.3 0 .3-.4.4-.2 0-.1-.2l-.1-.1a.2.2 0 0 1-.2-.3h.3q.2 0 .1-.1v-.4q.3-.5.2 0m0 1.6q-.1.3-.2.2l-.3-.3q-.1-.1.2-.2.5 0 .3.3m-78.3.8q.1 0 0 0 0 .3.2.3t0 .2q-.5.2 0 .8.3.5.1.5h-.3q-.1.2-.5-.3-.6-1-.2-.9h.2q0-.3-.2-.3v-.3q.3-.2.4 0zm-1.6.4.2.7v-.3q-.2-1.1-.2-.4m70.8.8-.7.8q0 .3 1-.7l.6-.8zm49 .6.8 1.2q.3.2-.2-.6-1.4-2-.6-.6m-3 4.2q.6.8.5 1c0 .3 1.3 1.6 1.5 1.4.2 0 2 1 2.4 1.4.2.2-1-.4-1.6-.9q-.8-.6-.3 0c.5.5 1.6 1.2 1.8 1l1.5.7q1.7.8.9.8a25 25 0 0 0-5.9 3.8l-.4.3-.5.7.3-.2q1-1 .2.1-.3.5-.7.5l-.2.1q0 .2.2 0 .2 0 .1.2 0 .3-.3.2t-.1.2l-.2.6-.8 1.6-.6 1.1-.5-1q-.6-1.1-.3-1h.3l-.5-.3-.4-.4q0-.2.1-.1.2 0 0-.4t-.4-.5v.4q.4.7 0 .1-.3-.4-.2-.6 0-.3-.1-.2l-.5-.2q-.3-.4.1-.2.4.1-.2-.8c-.6-.7-1.2-1.2-.9-.6q0 .2 0 0l-.2-.4q0-.3-.3-.4-.3 0 0 .2 0 .3-.2 0-.6-.5-.2-.3.5.1 0-.5-.4-.2-.6-.1l-.8-.3-.2-.4.4.2q.2.3.2 0 .2-.2-.7-.3-.4 0-1.5-.6-1.9-.9-.7-.9.4 0 .3-.1l1.1-1c1.4-.8 3-2 3.7-2.8l.5-.5q.1.2-.3.6l-.3.5c.2 0 .9-.8 1.2-1.4l.3-.6-.4.4-.5.4.4-.7 2-2.8q-.3.6 0 .2l.2-.6q-.2-1.4 1 1c.4.9 1 2 1.4 2.4m-47.6-3.2q-.8.9.4 0 .5-.5.3-.5-.4 0-.7.5m7.5 2.1q-3.5 3.6.8-.4l1.5-1.7zm38-2 .2.7.3.3-.3-.7zm1.8.8h-.2q-.4-.2-.1.4 0 .3.3.3t0-.2l.1-.2c.3 0 .5.7.3 1q0 .5-.6-.4l-.3-1c0-.4.5-.3.5 0m-3.7.4q0 .5.2 0 0-.2.1 0-.1.7-.8.2l-.2-.3h.3q0-.3.2-.3zm-99.2 1.5 1.3 1.1c.1 0-1.5-1.7-2-2q-.4-.1.7 1m102.3-.5q.5 1 .6.8l-.4-.7q-.5-.5-.2-.1m-43.4 3.4-.6.4q0 .2-.2.2t.3-.5l.8-.5q.2 0-.3.4m47.8-.1.4.4q.8.4.1.3-.7-.3-.7-.8.3-.4.2 0m-57.4 1c-1 1-1.1 1.4 0 .3l.8-1zm59.4.2q.3.7-.2.4c-.6-.2-.9-1-.3-1q.5 0 .5.6m-112 .8.3.5-.5-.4q-.7-1 .2-.1m60.4 0q-.3 0-.3.2l-.2.2c-.4 0 0-.6.4-.6q.4 0 .1.1m-59.1 1q0 .4.2.5l.2.4-.7-.5q-.7-.7-.3-.7.6-.4.6.3m111.9.8q.5.2 0 .2-.3-.1-.5.2 0 .2-.4.1-.3-.1-.2.4.2.5 0 .2l-.7-.2q-.7.2.6-.6c.9-.5.8-.5 1.2-.3m-16.9.6-.1.4-.2-.2v-.5q.1-.6.3.3m-37.8.3-.5.7.8-.7.6-.7zm58.2 1h.5q.6-.1 0 .2-.3.2-.6.1h-.5q-.4 0-.4-.3-.2-.4.1-.1t.2-.2.3-.2zm-114.6-.3c0 .2 1.3 1.5 1.4 1.4l-.7-.8zm106 .7q-1.6 1.6.3 0 .8-.7.6-.8-.3 0-1 .8m-15.7-.4.4.2q.5 0 .5.5.1.6-.4.2-.4-.1-.4-.4h-.2q-.3 0-.2-.3.1-.7.3-.2m-108.8 1.4q-.3 0 .2.2.8 0 0 .1l-1.4.8-.5.3q1-1.3-.1-.2c-.7.6-1 1.3-.5 1v.2l-.3.2q-.2 0-.2.2l.1.2c.2-.1.3 1.9.2 2.9q0 .3.2.2l.3.1q0 .3-.1.1-.5-.2.3.7c.5.6 1 .8.7.3q0-.2.1 0 .2 0 .1.3 0 .3 1.2.7 1.9.7 2.1.4h.8q.7.3.6.6t.2.2.2-.2 1.3.1l2.9 1.1q-.2.3.4 0 .7 0 .4.2-.5.2 0 .3l2.4.5q0-.2.2-.2t.2.1q.1.5 1.6.7.9.1.4 0-.4-.2-.1-.2c.4 0 1.3.3 1 .3l-.2.2c0 .2 2.2.7 2.6.5h.1q-.5.4.8.6l1.1.2q.5.2 0 0c-.4-.4 0-.3 2.3.3 2.1.6 3 1 1.7.7h-.5q0 .3.2.2t.9.2 1.4.2.4.1q-.1.4.8.5l1.2.2q.3 0 .2-.1-.1-.2.1-.1.4.1.3-.5 0-.5-.2-.6v.2q0 .2-.3 0-.7-.7-.1-.5l-.4-.2-1-.4-.4-.4q.5.1 0-.3-1.1-.7-1-.1 0 .2 0 0-.3 0-.1-.3 0-.2-.3 0l-.2-.1c.2-.3-1-.9-1.3-.8q-.3.1-.2-.1.2-.4-.9-.4l-.1-.2-.7-.6a15 15 0 0 0-3.3-1.6c-.2.2-3.6-1.6-3.4-1.8l.6.2.4.2c0-.3-1.7-1-2-.9v-.1q.1-.3-.2-.1h-.2c.1-.3-2-1.5-2.4-1.4l-.2-.1q-.1-.3-1.4-1l-1.2-.5.5.4.7.4-.9-.4-1.5-.9q-.2-.2 0 0h.2q-.2-.3-.3-.2-.6 0-.8-.3 0-.2.2 0 .2 0 .1-.2l-.5-.3q-.6 0-.2.2.2.2-1.8-.7-1.8-1-2-1.4c0-.3-1.1-.4-1.5-.1m92.6.2-1 .5-1 .6-1.3.7q-.4.2-.3.5 0 .2-.2.1h-.2q0 .3-1.3 1c-4.6 2.5-4.9 2.6-4.7 2.3q.2-.5-.6 0l-.6.7h-.3q-.5 0-.8.3l-1 .5q-.6.2-.5.5v.2c-.4-.2-1.5.4-1.3.7q0 .2-.1 0c-.3-.1-1.6.3-1.6.6h.3q.3 0 .2.1-.1.2-.5.1c-.5-.1-1.4.3-1.3.7q0 .3-.2.1l-.2.1c0 .1-1.2 1-2.8 1.8l-3.7 1.8.6-.5-.4.1-.4.3q0-.2-.6.4-1.4 1.4.4 1.6.9 0 .6-.2-.5-.2 0-.3a29 29 0 0 1 8.8-2c.8-.1 2-.6 1.5-.7q-.2 0 .1-.2 1-.3.5 0-.3.3.2.2t1-.3q.2-.2 0-.1-.3 0-.1-.1c.3-.3 1.5-.5 1.5-.2h.3l.5-.2q.6-.1 0-.2-.2 0 .3-.3h.8-.2q-.3 0-.4.3 0 .3.6 0l1.5-.5q1-.3.9-.5-.2 0 .4-.3h.7l-.2.1q-.4 0-.4.2l1.2-.2c1.4-.3 2-.7.8-.5q-.4 0 1.7-.6c3-.9 3.2-1 3.2-.7 0 .2 1 0 1-.2h-.4q-1.1-.1-.7-.5.3 0 .1-.4 0-.5.2 0 .5.3 0 .5c-.5.4.8.2 1.8-.4q1.3-.5-.2.4l-.5.3.5-.1c1.3-.3 2.7-2 2.8-3.7 0-1-.2-2-.5-2l-.3-.2v-.2c.7.4 0-1-.7-1.5a2 2 0 0 0-1.4-.4q-.7 0-.6-.1.4-.3-.3-.4zm16-.3.4.3q.8 0 0-.3-.4-.3-.4 0m-106.5.5.4.2c.2-.1-.3-.5-.6-.4zm93.8.7q.6.6.2.3l-1-.7-.2-.4zm27.3 1.2-.2.4v.1q0 .2-.2.2-.4.1 0-.5.4-1 .4-.2m-4 .6q.2.3 0 .4l-.2-.3q0-.3-.4-.4-.4 0 0 0 .3-.1.6.3m-31.6 0-.2.4.6-.3.2-.3zm-28.5 1-.9 1.1c0 .2 1.2-1 1.8-1.7q.5-.8-.9.6m63.6-.2q0 .3-.2.1 0-.3-.4 0-.3.4 0-.2.5-.7.6.1m-125.8.2v.4l.2-.4v-.5q-.2 0-.2.5m122.9 0c.4.5.6 1.3.3 1.1l-.4-.2-.3-.1q0-.3.1 0 .2 0 .2-.2l-.2-.2v-.2l-.2-.5q-.2-.2 0-.2zm-31.5.3q.5.4 0 .2-.4-.1-.4.2 0 .5-.2 0-.5-1.2.6-.4m-80 .3q.2.3-.5 0-.3-.2-.6 0c.3-.4 1-.4 1.1 0m78.8 0q0 .6-.1.3 0-.3-.3-.4-.2 0 0-.2.5-.4.4.4m-90 .7q0 .5.2.5.3.1 0-.7-.2-.5-.2.2m68.9.6q-.1.6-.7.6-.2 0-.1-.1.1-.3-.4-.1t0-.2.7 0l.2-.2q.3-.6.3 0m51 .8q0 .4-.2.4l-.2-.7q.2-.8.3.3m8.1-.3q-.6.3-.6 0t.2-.1l.3-.1q.1-.2.3-.1zm-96.6.1q.4.5.3 0 .2-.6.5 0c.3.6-.4 1-.8.5q-1-1.2 0-.5m68.1.3-.5.6.3-.6.5-.6zm21 0q-.4.3-.4-.3.2-.5.3 0zm-51.6.1q0 .3-1 1l-1 .9 1-1c1-1 1-1.1 1-.9m15.3 0-2 1 1-.6c1-.5 1-.6 1-.4m-52 1.1.5.6zl-.7-.7q0-.2.7.6m9.2.1.9.7s-1.3-1.4-1.5-1.4zm-37.8-.1.6.3c-.3 0-1.8-.7-1.5-.7zm4.1.2v.3l-.3-.3q-.1-.4.1-.4t.2.4m11.2-.4.5.4.5.2q0-.2-.5-.4zm39 .5-.4.6.7-.6.4-.5zm-2 2-1.2 1.5 1.4-1.3 1.2-1.4zm37.8-1-.6.3.6-.1q1-.1.8-.3zm-83.5.9.7.2q.3 0 0-.2l-.8-.2q-.2 0 .1.2m24.3.5.8.8q.7.3-.2-.5c-1-1-1-1-.6-.3m30.6 0-1.7 1.6q-.9.7.5-.6c1.3-1.4 2-2 1.2-1m11.1 0q-.3.2-.1.3l.6-.3q.3-.3.1-.3zm-12 .2c-.2.3-.7.5-.7.2q0-.3.2-.2l.3-.1q.3-.4.1 0m23.6 0-1 .3.4-.2 1-.3zm38.6 1.1q-.6.8-.1-.4.1-.5.3-.3zm-101.8-.4.4.1q0 .2-.4.2t-.5-.3.1 0zm12.3 0 .1.2h.2c-.2.2-.8 0-.8-.2q0-.2.3-.2t.2.2m-13 .3q.2.3 0 .1-.3 0-.1.1 0 .3.3.1c.4-.2 1.6-.2 1.6 0l-.4.9-.4.5q0-.2-.2-.2-.3.1 0-.2.5-.5-.1 0h-.5q0-.3-.5-.2-.7 0-.6-.3t.1-.2q.3 0 .2-.2.2-.5.5-.7zm21.8.3q.8 1 .4.2l-.5-.5q-.4-.1 0 .3m30.4.8q0 .4.5-.2.3-.5.1 0 0 .3.3.2.8.1 0 .4c-.6.2-1.5.3-1.4.1h.3q.4 0-.2-.8-.6-.6-.2 0 .2.4-.2.4-.3 0-.3.2t-.2.1c-.3-.1-.4-.5 0-.4l.3-.4q.1-1 .8-.2zm-22.8 0-.6.6zq.8-.7.5-.7zm19 0c-.7.3-1 .7-.4.3.5-.2 1.2-.7 1-.7zm-46.3 0q0 .3-.3.4-.4 0-.1-.3.3-.5.4 0m-4 .1q.4.2 0 .2l-.6-.2q-.4 0-.1-.1zm15.6.3q1.1 1 .3 0l-.7-.5q-.2.1.4.5m-13.7.6q.4.3.8.3.7 0-.5-.4-.8-.2-.3.1m27.5 1-.6.8.8-.6q1.2-1.4-.2-.2m22.3 0q-.5.3.2.1l.6-.2c.2-.3-.4-.2-.8 0m-14.5 2q-1.6 1.3-.6.3l.8-.7zm-27.5 2h1.8zm38.6 0h2.1zm57.3 0h.8-.7m2.5 0h1.1zm15.6 0h.8zm3.4 0h1.7zM149.2 189l-.6.9.4-.2.8-.9q.5-.3.2-.3zm160.3.6.1.3q.3 0 0 .2l-.4-.3q-.3-.4 0-.3zm-81.6 6.1c63.6 0 71.7 0 71.8.3.2.4 1 .4 1 0q-.1-.3 1.3-.3 1 0 1.1.2h-1q-1 0-1.1.2 0 .2.7.1l.8-.1v1q.2.7 0 1c-.2.1-.6 1.5-.4 2 0 .3-1 3.4-1.1 3.3l-.3.1v.1q.7-.3-.4 1.7-.7 1.2-1 1.2c-.3 0-.7.9-.5 1.2h-.1q-.6 0-.6.8.2.3 0 .2c-.2-.1-.8.5-.8.8l-.5.7q-.5.4-.4.8 0 .3-.2.5v-.4q-.3 0-.3.2l-.5.7q-2 2.1-.7 1l.8-.6c0 .2-2.6 3-2.8 3q-.2 0 .3-.5.8-1-.4.2-.6.5-.3.5c.6-.3-.5 1-2 2l-.6.4.6-.6q1-1.1-.4 0c-.6.5-.9 1-.4.7l-.4.4-1 .5h-.1q0 .3-.3.6-.4.3 0-.1c.4-.6-.2-.5-.9.1q-.9.8.1.3t-.6.6q-2.1 1.5-1.8 1 .2-.5-.7 0-.4.5-.3.6l-.2.2h-.2q.3-.5-.7 0-.6.3-.5.5l.5-.1q.3-.3.4-.1l-3.6 1.8.2-.3q.4-.3 0-.3c-.4 0-1 .5-.7.7h-.1q-.5 0-1.2.3l-1.6.6q-.8.3-.7.5c0 .3-1.8 1-2.7 1.1q-.4 0-.4.2l-.7.3-2 .6q-1.1.5-1.7.3h-.3c.1.3-2.2 1-2.7.8h-.3v.3l-.8.1q-.6.1-.2-.1c.3-.2-1.1-.1-2.2.2l.3.2q.4.2-.3 0l-1.6.2-1 .2q-.3 0-.3.2l.2.2h-.3c-.6 0-1 0-2.4.5q-.3 0-.1.2.1.1-.7.2c-.9 0-1.7.4-.9.4q.3 0 .1.2l-.5-.2q-.4-.3-.2 0 .1.4-.5.6-1.1.2-.1-.2.6-.3-.1 0c-1 .1-4.5 1.9-4.4 2.1q0 .2-.2.3t-.2 0-1 .4l-.7.3q-.3 0-.3.2t.4 0q.8-.3-.3.4-1 .7-.8.2.4-.5-1.1.6l-.7.7q0 .3-.2.5t-.2 0 0-.2c-.4 0-1.4 1.1-1.3 1.3l-.1.4q-.3 0-.1-.1.1-.5-.5 0-.2.3-.1.5l-.1.3q-.2.2-.1 0 .2-.4-.4 0-.5.6 0 .4.1 0 0 0 0 .3-.4.2c-.2-.1-.7.6-.5.8h-.6v.6l-1 1.8-.8 1q.3-.8-.5.3c-.4.6-.5 1.3-.2.7.4-.6.2.1-.3 1q-.3.8-.4.6 0-.2-.3.2-.6 1.2 0 .4.4-.5.2 0c-.3.8-1 2.4-1 2.1q0-.3-.1-.1c-.3.3-.6 2.5-.5 3.7v1c-.4-.8-.7.7-.4 1.8q.1.5.3.2.3-.3.1 1.1c0 1.2 0 3 .4 4q0 .4.3 0 .1-.2 0 .4 0 .7.2.4.1-.3 0 .2c-.1.7.3 1.7.6 1.3q.2-.3 0 .2c0 .4.5 1.8.7 1.5l-.2-.5v-.4l.5 1q.7 1.4.1.6-.4-.5-.3-.2l.3.6q0 .4.4.3l.2.1v.6q.3.3.1-.1 0-.4.2-.1.3.2.2.4t.2.8.2 0 .5.3q.4.7.3.8l.2.5q.7.6.3 0t.3.1l.1.3c-.8-.4.3.8 2 2.5q1 1 1.4 1l.2.1c-.2.2.4.8.7.8v-.4q-.5-.4 0 0 .3.2.2.5t.3.3 1 .6l.7.4-.6-.5q-.6-.5 1 .4l1.6 1-1-.5-.8-.3c.1.3 1.7 1.1 2.3 1.3q.6.3 0-.2c-.4-.4-.3-.3 1.2.4a31 31 0 0 0 8.1 2.6c-1 0-.4.4.7.4l1.2.2v-.1l-.7-.3h1.2l3.5.2c2.2 0 2 0 1.8.3h-.6c-.4-.5-.5-.1-.4 7v6.9h-2.2l-2.4-.3-.4-.2q-.2 0 0 .2l-5.6.1c-3.2 0-5.3 0-4.8-.1l-4.3-.1c-2.9 0-4.7 0-4 .1l1 .1h-2.7q.2-.3 0-.3l-.3.2-.7.2q-.5 0-.3-.1.3-.2-.2-.8l-.5-.4.3.6.2.3-2.3-2.8.5.2q.4.3-.2-.4-1-1-.7-.5 0 .3-.2 0t-.2-.4c.2-.4-3.6-3.9-4-3.6h-.2c.2-.3-.5-1-.8-.8h-.1c.1-.3-.7-.9-1-.7-.2.1-1.5-.7-1.3-1h-.2l-.6-.3-.2-.1q.3 0 .2-.1-.2-.2-.3-.1c-.4.2-3.7-1.5-3.6-1.9q0-.3-.1 0c-.2.2-.5.1-2-.5l-2-.8 1.2.3q1.5.5 1.2.2a18 18 0 0 0-5-1.3c.6-.3-1.8-.9-3.4-.8-2 .1-3.5 0-3.5-.3s-.5-.3-3-.3h-3l2.8.2 2.7.1h-2.4a53 53 0 0 0-11.9 1.4q.9-.4.1-.3c-1.3.3-2.4.7-1.7.8q.2 0-.1.1-1 .4-.5 0 .3-.2-.4 0c-1 .1-2.9 1-2.6 1.2q.1.1-1.7 1l-3.3 1.7c-.2-.2-1.6.6-1.6 1l-.6.6q-.7.5-.5.2 0-.4-.2-.3l-.2.4q0 .3-.2.5t-.2 0q.2-.1 0-.2c-.2 0-.7.6-.7.7l-1.6 1.7q-1.6 1.4-1.4 1.1.4-.6-.4.1l-.6.7.2-.2q.7-.5.3.2l-.5.3c-.2-.1-2.2 2.2-2 2.4q0 .8-1 1-.6 0 0-.1.4 0 .6-.4.6-.6-.6.1c-.6.3-1 .4-2.3.4h-1.7l1.7-.2-3.2-.2a26 26 0 0 0-6 .4q-.9 0-.8-.2t-.6-.2-.7.2-.7.2-.2-.2-1.5-.2-1.8.2q0 .3-.2 0h-4.6c-3.7.3-4.5.3-4 0q.2-.2.2-.6v-.5q.3 0 .2-4.2 0-4-.1-2.9-.2 1.6-.2-2.2l-.1-3.5h1.2a46 46 0 0 0 6.7-.5q0 .2-.5.2t-.9.2h1c1.3-.1 2-.4 1-.5h-.1l5.6-1.6c.2.2 1.5-.3 1.5-.5l-.6.1-.7.3 1.7-1 1.6-.7q-.3.3-1 .6l-.7.5c.2.2 2.6-1.2 2.6-1.5l1.3-1.1 1.2-.7v.2c.3 0 2.7-2 2.8-2.2q0-.4-.7.3l-1.1 1q-.6.4 1-1.1l2.9-3.2c1.3-1.8 1.5-2 1.4-1.6q-.1.7.3 0l-.1-.3q-.2-.1.4-1l1-1.8q.2-.8.4-.5.1.3.2-.1l.3-1.1-.4.8c-.2-.1.8-2.7 1-2.9.4-.2.7-1.9.6-3v-.6q.4.9.4-2.2 0-2.7-.4-1.6v-.6c0-1.1-.3-3-.6-3.4v.5q-.3-.1-.7-1.3c-.7-1.8-.7-1.8-.4-1.5q.3.7 0-.5-.2-.6-.5-.6-.2.1-.2-.1c.2-.4-.4-1.2-.7-1l-.3-.1q0-.3.1-.1.5.3 0-.6c-.4-.5-.9-.7-.6-.2l-1.3-1.2-2-1.7q-.5-.3-.4-.5t-.1-.1l-1.6-.5-1.8-1-.5-.2.5.1q.7.3.1-.2l-.9-.2q-.5 0-.4-.1h-.6q-.6 0-.3-.1l.2-.3c-.2-.2-3.8-.6-4-.5q0 .2-1 .1h-1l1-.1c1.4-.2.6-.4-1.3-.3q-1.6 0-1.8.3 0 .2-.1 0l.1-43c.1.2 32.5.2 72 .2m-72 .5q0 .5.3 0l.3-.2-.3-.1q-.2 0-.2.3m1.8 0h1zm2.8 0h1.4zm5 0h1.4-1.3m3.4 0h.7zm5 0h1.3zm8.3 0h1.4zm11 0h1zm5.5 0h1.4zm4 0h1.2-1.1m4.7 0h1zm34 0h1zm2.2 0h.9zm11.5 0h.9zm8.4 0h.9zm22.6 0h1zm11.2 0h.8zm-141.5 2.1q0 1.4.1.8v-1.6zm-8.2-1q0 .2-.2 0-.4 0-.4.2h-.3q-.4-.2.4-.4.5 0 .5.2m-56.7.4q-1.1 1.2-1 1.8l.4-.5q.3-.7.7-1.1t.4-.5-.5.3m13.5 6.7h-1.3zm10 0h-.8zm7.6 0h-.7zm25.5.6.1 4.2c.1-.6.2 1.3.2 4.4a31 31 0 0 1-.3 6.4q0 1 .1.3.2-.4.2 1.4 0 2-.2 1.2l-.1 4.5v5.4l.2-.2q0-.2.1 0c0 .4-.1.4-1.3.4q-2.3 0-1.7-.4.2-.2-.6-.2c-.9 0-2.3-.1-2.9-.3l-.2.1q0 .2-.5.2t-.6-.2c0-.3-1.1-.6-1.3-.3l.3.1q.3 0 .2.1c-.1.2-2.3-.3-2.4-.5h-.4q-.3 0-.2-.1c.2-.3-1.9-.9-2.6-.7q-.6 0-.2-.1.3-.2 0-.3-1.7-.5-2.4-.4h-.2q.5-.4 0-.4-1.2-.3-1.2-.1h-.4q-.4 0-.1-.2c.4-.1-1.4-.9-2.2-.9h-.5c.2-.2-1-.9-1.4-.9q-.2 0 .3.4 1.4.7-.5 0-1-.4-.8-.7 0-.2-.2-.2l-.2.1c0 .2-1.3-.3-1.6-.6h.2l.6.2c.1-.2-1.3-.7-1.5-.6q-.2 0-.2-.2t-.6-.5l-.5-.2.5.4.3.4c-.2 0-1.9-1-2-1.3q0-.1.1 0l.5.3-.2-.3q-.4-.3-.7-.2v-.2q0-.2-.3-.4l-2.6-1.5c-2.2-1.6-2.6-1.7-2.1-1.2q.3.6 0 .1-.5-.2-.3-.4 0-.3-.6-.2v-.2l-.2-.5q-.8-.5-.6 0-.3 0-.1-.4 0-.4-.2-.1t-1.4-.8l-.4-.5q2 1.4.6.2-1-.9-1.3-.9h-.1c.2-.3-.3-1-.6-.8q-.3 0-.2-.1 0-.3-1.1-1.5l-2.7-3q-.3-.7-1-1c-.6-.4-1.2-1.2-.7-1s.4.1-.4-1v.4q.3.5-.2 0t0-.5q.3-.2-.1-.2c-.4.1-1.7-1.8-1.8-2.7l-.2-.9c-.1-.3.7-.3 16.4-.4 27.6 0 31.2 0 31.2.2m151.8.5q-.6 1.3.1.2l.4-.7zM101 208c.1.3-.7.2-.8-.1q0-.3.3-.2.5 0 .5.3m206.2 1q-.2.4-.1.6 0 .2.2 0l.3-.7q.3-.6-.4.1m-205.2.8q-.5.2-.2-.3 0-.4.3-.1zm46 4.7v.4-.9zm146.3.4q0 .2-.5.5-.6.4.2-.6.6-.5.3 0m8.2 1.6q-.5.5-.1.5c.3-.2.7-.9.6-1zm-14 2q-.3.8.4.1.5-.3.2-.3t-.5.3M111 219.7q.1.5 0 0h-.6q-.3 0-.1-.2l-.1-.4q-.2 0-.2-.2c0-.2.9.4 1 .8m-10 .8c.4.6.6.8 2.3 2.4 1 1-.7-1-2.2-2.5q-.6-.6 0 .1m184.5 0q-.4.1-.6.4-.3 0-.2.3l.8-.5q1-1 0-.3m11.5 1.6q-.4.4-.3.5l.7-.5q.8-1-.4 0m-16.3 1.2q-.5.2-.5.4c.1 0 1.3-.5 1.3-.7zm-175 .5q-.2.2.1 0 .3 0 .5.2 0 .2-.2 0-.2-.1 0 .2.1.5-.5 0l-.6-.6h.3q.5 0 .3.2m188.7.6-.4.5q.5 0 .9-.6.6-.8-.5.1m-146.2 1.3-.1-.4v-.4q.2.4 0 .8m0 2.7v-1.5zm125.2-2q-.5.3-.4.4l.8-.2q.9-.5-.4-.1m-165.1.6.6.6.2.1q.3 0 .6.4.6.7.8.4c0-.2-2.5-2-2.7-2q-.1.1.5.5m5.3 3.7q1 .6.7.2l-.7-.3-.5-.1zm1 .5c0 .2 1 .7 1 .6l-.5-.4zm163.2 2.3q-.5 0-.6.3c0 .2 1.1-.3 1.4-.5q0-.2-.8.2m-27.3.2-1.4.6c0-.1 1-.7 1.3-.7M124 236c0 .2.8.5 1 .4l-.5-.3q-.5-.2-.5 0m7.2 2.4.9.3c.3 0-.9-.6-1.2-.6q-.2 0 .3.3m31 .5.4.1h-.4l-.7-.1q-.4-.5.7 0m-28.5.2.6.1q.6 0 .2-.1-1-.4-.8 0m4.5.5H137c0-.2 1-.1 1 0m114.5 1q0 .3-.4.4-.7.1-.3-.5c.1-.4.7-.3.7.1m-103.4.8q.3.4-.2.4t-.4-.5q.2-.9.6 0m88.9 1.7q-.6.7-.1.4c.3-.3.8-1 .6-1zm-66.2.7 1.1 1a9 9 0 0 0-2-2.1zm-22.4.1c-.3.1 0 .6.3.5h.4c.1.3-.8.3-1 0q-.5-.5 0-.6l.1-.5q0-.6.2 0zm87.7.3-.1.4.3-.2.2-.4zm1 .5v.5h-.2q-.5-.3 0-.4l.2-.4q0-.3.1-.2zm9 .3q-.7.8-1 .8l1.8-1.6zm-98.3.4 1 .7q.8.3.5.1t-.9-.6q-1-.8-.6-.2m97 .8-.8.9q-.8.7.1-.4 1.1-1.2.6-.5m-95 .3.5.2q.6 0 .2-.2-.6-.5-.6 0m9.7.5c.5.3 1.5.5 1.3.3l-.9-.3zm3.5.2q0 .3-.3 0h-.5q-.2 0 0 0c0-.3.8-.3.8 0m.6 1.4.5.4q.5.1.4 0c-.2-.3-.9-.6-.9-.4m10.8.8.4.7q.3 0 0-.4l-.1-.3-.1-.4-.2-.2zm68.2-.3q-.3.3-.2.5t.3-.3q.4-.8-.1-.2m-.8.3-.3.5-.3.2.2-.5q.3-.6.4-.2m-.2 1.5-.1.6.3-.4.1-.6zm-8.7 9.2q0 .6-.1.3l-.2-.7q0-.8.3.4m-57.5.7-.2.4v-.5l.2-.8q0-.6 0 0zm66 .8q0 .3.3.5.5.4 0 0zv-.2zm-75 1.2-.4.8c0-.2.8-1.9.9-1.8zm1.2 0 .2-.1q0-.3.2-.1c.2.2-.4.7-.7.5q-.2-.3-.2.2v.4q-.2-.1-.1-.8 0-1.3.2-.6 0 .3.4.5m73.3-.2q.3-.1.5.4.4.8-.3.6-1.1 0-.6-.4.2-.3 0-.4l-.2-.5q0-.3.1 0 0 .4.5.3m-74.4 1.2q-.3 0 0 .5t-.1 0 .1-.6q.3 0 0 .1m76.7 1.1q.3.5.4.4c.1 0-.4-.8-.6-.8zm-1.2 0q.2.3.1.4l.1.1q.2 0 .3-.2h.3q.3.4-.2.4a1 1 0 0 1-.8-.5q-.4-.8.2-.2m-79.2 2.2q-1.8 2 0 .3l1.1-1.1q0-.4-1 .8m9.6-.1-.6.8q-.5.6-.5.4v-.5c-.3-.3.4-.7.8-.5v-.3q0-.3.1-.2zm63.8-.2q.8.4.3.7l-.2.3q0 .2.2 0 .3 0 0 .2c-.1.3-1-.6-1-1.1q-.2-.6.7 0m-63.4.5v.6s.4-1 .3-1.1zm63-.2.5.3q.4-.2-.2-.5-.5-.3-.2.2m-64.6 1.8-.3.3q-.2 0 0-.1 0-.3-.2-.4-.3 0-.2-.4c.1-.3.7.2.7.6m65.6-.7q-.1.6.2.3.2-.4.2 0h.1l.4.2-.2.1q-.3 0-.3.2t.4.1.5.2l-.2.1q-.2 0 0 .4 0 .4-.2.4c-.3-.1-1.4-1.7-1.2-2q.2-.3.3 0m-66.7 2.8q-1.8 2.2 0 .4l1.2-1.8zm-14.5.7-.6.4.9-.3q1.1-.7-.3 0m-.1 1.2q-.6.1-.5-.2.2-.2.5-.1.3 0 0 .3m13-.2q-.5.6 0 .4c.3 0 .6-.6.3-.6zm-16 1q-.6.4-.7.1-.3-.2 0-.1h.4q.8-.5.2 0m105.8-.1h-.7l.4-.1zm7.2.5h-.6l.3-.1zm-128 1.8-.2.4.4-.2.1-.4zm1 .5q0 .4.2.7.3.5-.2 0-.5 0-.3-.3 0-.2-.2-.2v-.3q.6-.6.5.1m131.2.1v.7q-.2.3-.2 0t-.2-.2l-.4-.2q-.3-.2 0-.2t0-.2.1-.2.7.3m-105.7.2-.8.5q-.3.1 0 .1.4 0 .6-.2.3-.3.4-.2t.3-.2q.2-.6-.5 0m-27.3 3q0 1.3.1.7v-1.4zm110.8-.9 1.7.8-.8-.5zm-89.8 1.2q-.5.3-.2.3l.7-.3q.6-.6-.5 0m51.8-.2.7.2h.6l-.8-.2zm-15 .7.2.2.4-.2q0-.2-.2-.2t-.4.2m18 0q.4.3-1 0-.6-.2.2-.2.5 0 .9.2m38.8 0c.6.3 2.2.8 2.6.7l-1-.4c-2-.6-2.1-.6-1.6-.3m-96 .2q-1.3.4-.4.4l.8-.3.3-.3zm38 0q-.3.2.2.2l.5-.2c.2-.3-.3-.3-.7 0m-56.8 1.8q0 1.1.1.6v-1.2zm52 0-.7.4q-.5.2 0-.2zq.4 0 0 .2m75.5.8c-.4.2-.7 1-.5 1q.4.5 0 .6-.2 0 0-.2l-.1-.3c-.3-.1-.3-1.3 0-1.4l.1.1q0 .2.2.1.2 0 .1-.4h.1q.3.3.1.5m-42.3.1c0 .1 1.2.7 1.3.6l-.6-.4zm-38.7 1.4-.7.6s1.2-.6 1.5-.9-.2 0-.8.3m2.7-.3c0 .3-.2 1.1-.5 1.1q-.5-.2-.2-.5l.2-.4q0-.7.5-.2m-1.1 1.4q0 .2-.2 0l-.5.1h-.1l-.3-.3q-.4-.3.3-.1.6 0 .8.3m41.5 0q.3.3.5.2c.1-.1-.4-.4-.7-.4zm-43.3.4q0 .4-.2.1h-.4q-.1 0 0-.1.4-.5.6 0m79.6 2.5q0 2.2.1 1.3zm-51.9-.4 1.3.2 1 .2-1-.3q-2-.6-1.3-.1m-33.6.6a7 7 0 0 0-1.8 1.8l.9-.6 1.4-1.3q1.2-1-.5.1m12.4.1v.2l.6.2q.5.2-.3.4-1.2.4-.6-.7.4-.8.3-.1m-.8.3q0 .3-.6.3-.8 0 0 0l.5-.5.2-.2zm30.9.2-.4.5q-.5.6-.3 0 0-.3.1-.2l.3-.1q.2-.3.3-.2m-2.4.4.3.3-.7-.3-.2-.2zm-29.3.2q.2-.3.6-.2.5.2-.2.5-.4.4-.6.2 0-.2-.1 0 0 .4-.2.3l-.3.2q0 .2-.1 0 0-.3.2-.4l.2-.5q0-.5.2-.2.1.5.3 0m32 .5q.3.2-.2.2t-.4-.3q.3-.3.7.1m12.7 1.7q.2.4 0 .3-.3 0-.3-.4-.2-.6.3.1m-58 .6q-.8.2-.4-.3.3-.3.5 0 .3.1 0 .3m-1-.2c-.4.6-1.7 2.1-1.8 2l.3-.5 1-1q.7-1.2.5-.5m60.4 1q-.1.3.2.5.7.5.1.6-.3 0-.2.4.2.5-.1 0-.3-.3-.5-.2l.1-.2q.3-.4.1-.7 0-.4.2-.4m-97.7 1.2q0 .7.1.4v-.8zm45.8.3q-1.8 1.6-1.5 1.6l.9-.7 1.2-1c.5-.3.9-.9.7-.9zm78 .3h.6zm-97.9.2h-.3 1.3m2.5 0h-1zm79.6 0h-.7zm-65.5 2.2q-1 1.3-1.1.6l.2-.2.3-.1v-.6q.2-.5 1.2-.6zm-42.6.6q0 .8.1.5v-.9zm92.5-.5q.1.3.4.3l.4.2v.5q.1.6-.4 0-.3-.3 0-.3t-.4-.4q-1-.5-.4-.5.3 0 .4.2m-51.6 2c-.6.9-1.4 1.6-1.4 1.3l.3-.4q.3-.3 0-.1l-.3-.1.3-.2c.3 0 1.5-1.4 1.4-1.6h.1q.2.3-.4 1m-.3-.4q0 .3-.3.4-.2 0 0-.4v-.5h.1q.3.1.2.5m53.3.3q0 .3.3.3.6 0 .5.1l.1.4q.3.3 0 .5t-.5-.1-.6-1-.2-.5.4.3m-52.5.3c-.4 1.2-2.8 3.4-3.9 3.3l.6-.3q1.3-.4 2.5-2.4 1-1.5.8-.6m91.3 1q-.2.4 0 .4l-.5.6c-.7.7-.7.7-1 .1q-.5-.6.1 0 .4.3.4 0l.4-.7.3-.5v-.1q.3 0 .2-.2t0-.1q.3 0 0 .5m-131.7 1q.1.3 1 .8l-.3-.4q-.9-1-.7-.5m3.9.7q.3.2-.1 0-.4 0-.1.2v.3l-.4-.4q-.4-.6.6-.1m90 0q.2.3.4.3t0-.3l-.4-.3q-.2 0 0 .3m-92.3.6q.3.3.5.3l-.3-.3q-.8-.5-.2 0m128.6 0-.5.3.5-.1q.5 0 .7-.3.3-.4-.7.1m-113.7.5h2l-1-.1zm92.2 0"/><path d="M159.2 188q-.8.2 4 .2h5c-.2-.2-7.9-.3-9-.1m13.2 0 9.4.1h10.7a328 328 0 0 0-20.1-.1m37.3 0 2.6.1q3.2 0 2.2-.1a19 19 0 0 0-4.8 0m7.6 0 4.3.2zm22 0 16 .1zm59.3 0 3.3.1zm-145.6.1h1zm15.6 0h.7zm112.6 0h2zm4.6 0h1zm2 0h.8zM146.5 233h.7zm54.3 47h.7q.2-.2-.3-.2-.7 0-.4.1M146.7 97.1q-1.3.5-1.3.7l.6-.2 1.3-.4q1.1-.3 1-.6zm2.1-.4h1.1l1.6-.1c.2-.2-2.2 0-2.7 0m3.2.2.8.2 1.3.2q.7 0 0-.2c-.5-.3-2.4-.5-2.1-.2m3 .8q1.1.5.6 0l-.7-.3q-.3 0 .2.3m1.7.8 1.3 1q.5.5.5.3l.3.4.4.4c.2-.2-.3-.9-1-1.2l-.5-.5-.2-.2-.7-.4-.7-.3zm-13.6.5-2.4 2.5q-.1.5-.5.9l-.2.4.7-.9q.7-.9 1-1v-.5h.1q.3 0 .5-.2l1-1q.5-.4.3-.5zm13.7.3q.4 0 .4.9-.2.9.6.7v.2c-.1.2.5.4.7.3q.3-.2.2.6.1.8.8.3.3-.3.6-.1l-.4-.7c-.9-1-2.4-2.4-2.9-2.4q-.5 0 0 .2m-14.5 1.2q-1.2 1.4-.8 1.4t0 .1q-.3.2.1.3t.2-.2l.1-.5q.3-.2.2.6 0 .2.3.1.3 0 .1-.3c-.4-.5-.4-1.2 0-.9q.3.3.1 0c-.2-.3.3-.3.6 0q.2.1.5-.2.3-.5-.1 0-.5.3-.3 0 .4-1.5-1-.4m17.2.3a22 22 0 0 0 3.8 3.7L161 102q-.2 0-.4-.5-.1-.3-.4-.4-.3 0-.3-.3l-.2-.3zm-10 1.8q-1 .2.7.2c1.2 0 1.7 0 2.5.5q1 .5 1 .3c-.1-.3-2.4-1.2-3-1.1zm4.3.1q0 .3.6 1 1.3 1.1 1 .4v-.4c.3-.1-.7-1.1-1.1-1.2q-.3 0-.5.2m-8.2.1-.2.2v.3q-.3.3-.1.3l.3-.3q0-.2.3-.2l.1-.2v-.2zm-6.1.7q-.6 1.6-.1.7.5-1.1.3-1.2zm7.4.2q-.7.8-.7 0l-.3-.2-.2.2q0 .3-.2.2h-.2q.2 0-.3.6-.8 1-.2.7.3-.3.2-.4t.2-.2l.4-.3q0-.3.3-.3t0 .3q-.2.3 0 .3l-.2.2c-.5.4-1 1.4-.8 1.4l.5-.6q.3-.6 1.2-1.4t.8-.9zm-2.5 0q-.3.1 0 .4.4.4.6.1.2-.2-.2-.2-.2 0-.2-.2.3-.3-.2 0m9.5 0 2.7 2.8a188 188 0 0 1 9 9.1c.2.1-1.6-2-4.2-4.6q-7.6-7.9-7.5-7.3m1.7.5c0 .7 1.4 1.5 1.4.9 0-.2-.6-.4-.8-.3q-.2.2-.1-.3 0-.5-.2-.6-.4-.2-.3.3m-17 2-.2 1.4q.2-.3.3-1 .1-1.2-.1-.4m29 3 2.3 2zm-.5.1.5.7.6.4-.5-.5-.6-.7zm90.8 0q-.6.3 0 .2l.6-.1q.4-.3-.6 0m1 .2q.4-.1 1.2 1.3l.4.6-.2-.6q0-.5-.4-.7l-.2-.4c0-.4-.6-.6-.7-.3m-2.4.3q-.4.4-.5.8-.2.7.1.2l.7-.9q.7-.8-.3 0m2.5.4q-.2.8 0 .6.5-.2.2-.6zM145.6 112a26 26 0 0 0 3.5 3.3l-.5-.6zm115.2-.3.2.7.3.3-.3-.7zm-116 .6q-.5.8 0 1h.3q0-.2-.2-.2h-.1l.6-.2h.2q-.2.2 0 .7 0 .6 0 0 0-.4.3 0v.4l.2.2v-.3q-.1-.6.4 0l.3.7v.2h.3q-.1-.6.2-.2t.4.2c.2-.4-2.7-3-3-2.5m69.9.9h-1.4l1.2.2h2.5l1.4-.1-1.2-.1zm-75.1.1c0 .4.6 1.5.9 1.7l.2.4c0 .3.7 1.1 1 1.1q.2 0-.3-.7-1.3-1.4-1.2-1.6c-.1-.4-.6-1.1-.6-.9m69 .2q-1.9 0-2 .3c0 .2 5.2 0 5.5-.3zm11.4 1c1.7 1.6 2.3 2 1 .6l-1.6-1.4q-.6-.4.6.8m-16.5-.7h-1.2l1.6.2h1.6q0-.2.4-.1h.3q0-.4-2.7-.1m-4.6.5h.9zm-33 .5c.6.6.5.6.6.1q0-.4-.2-.4h-.5q-.5-.3.1.3m53.7 0 .6.3-.3-.4-.5-.3zm-78.6 0q0 .3.5.4.7.2.2.4c-.5.2.4 1 .7 1q.3 0 .3.2c0 .3 1 1.2 1.2 1 .4-.3.4-.9 0-.6q-.3.3-.1-.2 0-.5-.2-.3-.3 0-.4-.5-.2-.7-.4-.1-.4.6-.4-.5 0-.5-.2-.4l-.4-.2h-.3l-.3-.2q-.4-.3-.2 0M196 116l-1 1zm66.2-.5c0 .4 1.9 2.7 2.2 2.7l-.3-.5zm-8.5 1-.4.8.5-.4q1.2-2 0-.4m-33-.4.4.5q.6.5.1.3-.4 0-.1.2t0 .6 0 .2.4-.5.2 0q0 .2.3 0l-.5-.8q-.8-.8-.8-.5m33.7 0-.1.4h.2q.2-.4.2 0 0 .2-.3.3t-.8.7q-.8 1.1-.2.7.2-.2.4 0v-.2c-.1-.2.4-.5.7-.3v-.3q-.3-.4 0-.3.3 0 .3-.5.1-.8-.4-.5m-32.3.6.6.6.6.6-.5-.7q-.7-.9-.7-.5m-79.9.9q3.6 3.1 1.4 1l-1.8-1.7q-.3 0 .4.7m120.2-.5v.6q.8.1.7.5v.1h.6q.5.3.2 0l-.9-.9q-.5-.7-.6-.3m-10 1-.3.3-.7.4-1 .7.7-.3c1-.5 2-1.4 1.7-1.4q-.3 0-.4.3m3.2.6q-.5.4 0 .7.4.4.4-.4.1-1-.4-.3m.9-.2-.2.6q0 .4.1.1.3-.2.2-.6t-.1-.1m8 0 .6.5q.6.4 0-.2c-.3-.4-.8-.6-.6-.2m-86.6 1.2v-.2l-1.2-1.1zm15.1-.4c-.4.5-.5 1.8 0 1.4q.3-.3.5-.1l.4-.7q.8-.7-.1-1-.5 0-.8.4m66.4-.3c0 .3 1.9 2.4 2.4 2.6l-.3-.4-1.5-1.5zm-106.3.1 2.7 2.5zm107.9.2q0 .3-.3.2c-.3-.2-.1.5.3.8q.4.6.6 0l.3-.3.1.5-.1.2h-.2q0 .3.4.3c.5 0 .4-.7-.2-1.2q-.5-.3-.2-.3t.2 0c-.1-.4-.8-.5-.9-.2m27 .1q-.2.3.4.1 1-.3.3-.3zm1.3 0q0 .3.4.6t.3 0-.5-.5-.2 0m-74 .1q0 .3.4.2l.6.1q.3.1 0 0c-.2-.4-1-.5-1-.3m71.9.5-.3.3v.4q-.4.9.3-.3.8-1.2 0-.4m-79.1-.1h.7l-.4-.1zm47.2 1-1 1 1-.8q1-.7 1.1-1 .3-.7-1.1.7m-7.7-.3c-.5.1-1.4.7-1.2.7l1.2-.5q1.8-.9 0-.2m20.7-.1c0 .2.8.4.9.3l-.5-.3zm-50.7.8 1 1 2.3 2 1.9 1.8c-.4-.4-3.8-3.8-5-4.8l-1-.9zM199 121q-.5.3-.1.3l.4.3-.1.3q-.3 0-1 .7t-.3.6l.3-.1c0-.3.8-1 1-1s2 1.7 4.1 3.8l-1.2-1.4c-2.4-2.3-3-3-2.5-3q.2 0 .2.2 0 .1.2 0l.2.1c0 .2 1.4 1.8 1.6 1.8l-.3-1.3-.1.2q0 .3-.3 0c-.3-.3-.4-1.2 0-1.2v-.2q0-.3-.3 0-.3.4-.2 0c.2-.5-.8-.5-1.6 0m20 0q-.2 0-.2.3.2.6.7.3c.3-.2 0-.7-.4-.6m-64.6.2c-.4.2-.4 1.2 0 1q.3-.2.5 0v-.2q0-.2-.3-.1-.1 0 0-.4-.1-.7.5.2.4.5.3.7l.3.2.5.1q.1.3-.2.1-.2 0 .1.2l.4.4h.8s-1.5-1.5-2.2-2q-.4-.4-.7-.2m43.1 0-.1.5c-.1.4-.7 1.2-1 1.2l-.2.2q0 .2-.3.2l-.4.3q0 .1 0 0 .4 0 .2.3-.3.9.8-.2l1.8-1.8.4-.4-.6-.3zm93.2-.2.3.8.3.4c0-.3-.6-1.4-.6-1.2m-19.7.7q.6.4.7 1.3 0 .7.3.6c.5-.3-.7-2.4-1.4-2.4q-.2 0 .4.5m-72.9-.2-.4.4q-.5.5-.3 0c0-.3.7-.8.7-.4m-50.2 1 .5.4q.2 0-.3-.4l-.5-.5zm48.3 0q0 .2.3.1l.3-.2-.3-.2q-.3 0-.3.3m33 .9 1 1-1.4-1.5zm62.2-.5.4.7.2.6q-.1.1.2.2l.3.5c0 .4 1.1 1.6 2 2.1q.8.4.3.1-1.6-1.1-2.3-2.6c-.7-1.4-1.4-2.5-1-1.6m-142.4.8q.6.6.8.6l.4.4.7.6-.9-1c-1.2-1.2-2-1.7-1-.6m31.5 0q0 .5.2.2.6-.2.4.3 0 .3.2.5l.3.1.4.1q.4.2.3.4l.1.3q.5.4-.2.4t-.2.1l.6.6q0 .4.3.2l-.1-.3.2-.1h.7q.9.6-1.1-1.5c-1.8-1.9-2.1-2-2.1-1.4m16 .3-.5.8c.3 0 1.7-1.3 1.5-1.4zm-40-.2q-.3 0-.3.3h.3q.4-.5.3 0 0 .3.3.3t.3.6q0 .8.2.3v-.7q0-.3.2 0v.7q0 .6.4.4.4 0 .3.3 0 .3.1.2.3 0 .5.3.4.5.3 0 0-.5.2-.5l.2.3q0 .5.1 0h.3q0 .4.1.1l-.3-.4-1.4-1.3c-1-1-1.4-1.2-2.1-1m72 .1q0 .3-.2.1l-.2.1q0 .3.3.2c.3-.2 1 .6 1 1q-.1.3 0 .1h.3q0 .3.3.2.5-.2 0 .2-.3.2-.2.3.7 0 .6.1 0 1 .6.8 1.3 0 .4.2-.6.2.4.3h.8l-1.6-1.6q-2.5-2.5-2.5-2m23 0q0 .2-.3 0-.3 0-.2.3v.3q-.3-.1-.4.1 0 .3.7-.1l.5-.2q-.3.4.2.6h.3q0-.2-.2-.2t0-.2q.3 0 0-.4-.6-.5-.5-.2m1.3 0 .6.5.6.2-.6-.5zm10.3.1q-.6.3-1.5 1.3l-1 1 1.1-1 1.4-1q.2 0 .3-.3l.1-.2zm-111.2.3q0 .2-.3.1l.1.2.6.3q.3 0 0-.1zq0-.3-.1 0m23.1 0q-.3.4 1.4 2.1 1.6 1.9 1.4.8v-.5q.3 0 .1.1l.1.3.2-.6q0-.6-.3-.6t-.3-.3l-.2.1q-.6.6-.3-.2v-.3h-.8l-.5-.3h.6q1-.1.3-.5-1-.4-1.2 0l-.2.1q-.2 0-.1-.2t-.2 0m11.6 1q-1.8 1.8-.2.5c.7-.7 1.3-1.5 1.1-1.5zm81.8-.6q-.4.2-.3.4l.2.4q0 .4-.3.2t-.2 0l-.3-.2c-.2-.3-1.1-.4-1.1-.2q.1.3.8.2.2 0 .2.2l-.5.2q-.5 0-.6.2l-.3-.2q-.2 0 0 .2l-.2.3h-.2q.1-.6-.2-.7v.4l-.1.4q-.2 0-.2.2-.1.3 1.3.2.3 0 .8-.5l.8-.4c.8-.1 1.6-.7.8-.7q-.3.1 0-.4l.1-.4zm-117 0c0 .4 1 1.6 1.2 1.5l.6.2q.3.5-.1 0-.8-.4.2.7.6.6 1.1.4.7 0 .2.2-.4.5.1.5.2 0 0-.2 0-.2.1 0 .3 0 .1.4t.4 0 .2-.1q-.3.3 0 .7.4.8.7 0 .3-.6 0-.5t-.2.4h-.1q-.5-.2 0-.5.5-.4-.2-.5t-.5-.3c.1-.2-.6-.4-.9-.3h-.3v-.2q.3 0 .4-.2 0-.5.3-.3l.2-.1q0-.5-1.6-.5l-1-.1-.2-.3q-.1-.4.1-.2l.3-.1q0-.2-.3-.2l-.6-.2q-.2-.3-.2-.1m59 .4q0 .5.4.8.3.2.2.3-.3 0-.3.2h.3v.3q-.5.4 0 .2.5-.1 1 .3t.7.3.1-.5l-1-1q-.7-.7-1-.7l-.1-.5q-.4-.3-.3.3m21 .8 2 1.9.9.6-.6-.7c-1-1-3-3-3.3-3zm16.5-1c-.4.3-.6.8-.1.6h.2c-.2.3 1 .7 1.2.6h.2q0 .3.4 0 .3-.1.3-.4h-.4q-.7.5-.6 0l-.1-.4q-.3 0 0-.3t0-.2h-1.1m22.8.3-1.2.5-.9.5q-.5.5.2 0l1.2-.4q.4 0 1-.6 1-.9-.3 0m-75.6.4-.5.5.7-.4q.9-.6.4-.6zm50.2-.4c0 .2 1.9 1 2.5 1.2h.7l-.7-.2-.8-.4-.9-.4q-1-.5-.8-.2m-58 .2c-.2.2-.2 1 0 .8q.3 0 .3-.5t-.2-.3m62.9 0v.4c.5.2.3.7-.1.6q-.4-.1-.3.2 0 .2.3.1.2 0 .2.2h.3q.2-.3.1-.6 0-.2.2-.1l.5-.1q0-.3-.1-.1l-.6-.3q-.4-.3-.5-.2m-66.3.6.7.8c.2 0-.6-1-1-1.2q-.4-.3.3.5m2.1.5-.7 1q-.1.3.1 0 0-.2.2-.2.2.1.2-.1t.3-.3.2-.2q0-.2.3-.1.4.1.4-.4c0-.6 0-.7-1 .3m-31.8-.2c0 .3-.5.1-.5-.2q-.1-.2.2-.1.3 0 .3.3m-1.3 1 3.8 3.4c.8.6.2 0-2.9-3-2.1-1.9-2.8-2.2-.9-.4m40 .2-1.6 1.4h-.2q0 .5-1.3 1.7l-1.5 1.7 2.8-2.6zm90.8-1q-1.2.9-.7.7l.9-.5q1.2-1.1-.2-.1m-60.6 0 .4.4 2.2 2 2.6 2.4c0-.2-1-1-2-2q-1.7-1.7-1.7-2l.6.4.6.4q.3 0 .2.2l.3.5q.4.5.5 0c.2-.5-1-1.4-1.2-1v-.3q.1-.6-.5-.4h-.5l.5-.2.5-.5q0-.3-.1 0-.2.3-.6.4-.3 0-.4.3 0 .4-.7-.3t-.7-.4m-44.4.2q-.2.2-.3.7 0 .2-.3.1-.6-.2.2.7.8.4.3-.3v-.5q.2-.3 0-.4zl.1-.3zm87.9.2-.5.3 1.4-.7q0-.2-1 .4m21.9.4q-.3.6 0 0l.4-.3.3.3q.4.6.2 0l-.1-.4c0-.2-.7 0-.8.4m-38 0 .7.4.6.2-.6-.4zm14.8.3q-1.1.6 0 .1l.6-.4zm-59 0q0 .3-.3.1-.1.2 1.5 1.8 1.8 1.6 2 1.5 0-.2.2-.1.2 0-.1-.3-.3-.4-.2-.6v-.1l-.4-.1q-.2-.2-.4-.1-.3 0-.4-.2.5.2 0-.5 0-.4-.3-.3l-.4-.5q-.2-.6-.5-.5l-.5-.1q-.2-.3-.2 0m76.5.2q0 .2-.3.1l-.3.2q0 .3-.3.2l-.4.3q-.3.4 0 .1c.4-.3 1-.2.9 0q0 .2.2.2t.1-.2q-.2-.4.4-.7.3 0 0-.2zm11.7.2c-.3 0-.1.6.2.6v-.2l.1-.4q.3-.3-.3 0m-14.2.3-.2.3.6-.3q.3-.2.2-.3zm15-.2q0 .2.3.4.4.4 0 .2h-.4q0 .3.2.3t.1.2h.4q.8 0 .3-.5c-.2-.3-1-.7-1-.6m-105.1.2c-.3.3-.2 1 0 .8h.2q-.2.3-.5.2c-.4-.1-.8.5-.5.6q.3 0 .1.3 0 .2-.2 0c-.2-.3-1 0-1 .3 0 .4.6 1 .7.6q0-.3.3-.3c.2 0 1.7-1.7 1.6-1.8l-.4-.4zm73.7.3q-.5.7.1.2.9-.4.5-.6zm26.5.3c.6.7 1.8 1.6 1.8 1.4l-1.2-1.1q-1.6-1.4-.6-.3m-63.5.3.6.8q.9.9 1 .4 0-.2-.2-.1-.3 0-.3-.2t.3-.2-.1-.2q-.5-.3-.7-.2l-.1-.1q0-.2-.2-.3zm31.3.3q.2.2 0 .4h.1q.6-.4 0-.6-.3 0-.1.2m-.4.4.3.6q.4 0 .2-.2l-.4-.5zm41.6 0 .1 1q.4 1.7.4 0c0-.4-.2-1.1-.4-1.1q-.2 0-.1.1m-14.5.6h-.4l.4.5.7.3-.2-.2q-.6-.3 0-.5t-.5 0m-30.7.8.3.6c.1-.2-.4-1.4-.6-1.4zm30.3 0v.5q-.4.4 0 .2t.2.3q-.3.7.1.3.9-.2 1 .3l.3.2.3-.1q0-.2.2 0 .2 0 .2-.2t-.4 0-.2-.3q.3-.3 0-.4-.5-.1-.8-.5l-.7-.4q-.2 0-.2.2m1.3 0 .6.5.5.4-.4-.5q-.6-.8-.7-.4m13 .8-.2.2q1-.5.8-.6zm-121.6 2.2L175 137c0 .3 2.2-2 4.2-4 1.5-1.7.6-.8-1.8 1.5m42.8-1 1.5 1.3v-.2l-1.5-1.3-1.4-1.3zm34.8-.7c.2.3.7 1 .7.7l-.3-.6q-.5-.9-.4-.1m6.6 0 .2.2q.2 0 .2-.3l-.1-.3zm-.8.5-.1.6c.2 0 .7-1 .5-1.1zm-91.4.7 3.2 2.8.5.5-.5-.7a23 23 0 0 0-3.6-3.2q-.6-.4.4.6m49.5-1q0 .3.4.5t.3.4l.1.2q.2 0 .1.2h-.3c-.4-.2.1.6.6.9q.5.4 1.1.4.3 0 .5.5t0 .2h-.2q0 .3.6.4c.8 0 .8 0-1.3-2q-1.7-1.6-1.9-1.6m-50.8.6.2.3c-.2-.1-.7.5-.6.8q0 .2.6.1c.7 0 1 .8.6 1.3q-.2 0 0-.1l-.1-.4c-.4-.2-.3.4.2.8q.4.5.9.3h1q.6 0 .6-.3c0-.3-2.6-2.6-3.3-3l-.5-.3zm128 .2-1.2.7 1-.4 1.1-.5.2-.2c.1-.3.1-.3-1.2.4m-57.4-.3q-.2.4.4.3h.2q0 .3.2.5.5.4 0 .2-.5-.1 0 .1t.4.5l.1.3.3.1q0 .2-.3.1l-.3.1q0 .5.8 0 .6-.2.7.6 0 .3.4.3.3 0 .2.2t.4.4l.5-.1-.2-.2q-.2 0-.2-.3c0-.2-2.3-2.4-2.5-2.4l-.4-.4q-.4-.6-.7-.3m42.7.2q0 .3.3.3t0-.3q0-.3-.3-.3zm2 0c-.1.4-.2.4.4.8q.6.5.4-.2-.4-1.1-.8-.6m3.8-.1-.2.3.5-.2q.5-.5-.3-.1m-3 .4.3.3v.3q0 .2.2 0v-.3q-.2-.2 0-.4l-.2-.1q-.2 0-.2.2m-28.4.5c.3.7.6 1.3.6 1l-.6-1.3zm27-.2c0 .2.4.7.6.7q.4 0-.2-.6-.3-.2-.4 0m6.5 0q0 .2-.4 0-.2 0-.1.2.4.4.7-.1t-.2-.1m-47.6 1.2q1 .9 1.3 1.5 0 .4.3.3c.2-.2-1.2-2-2-2.6q-.5-.1.4.8m52.3-.5-.5.5zl.6-.5q0-.2-.7.5m-131.8.4q1.4 1.6 1.6 1.6l.4.4.3.2q0-.2-1.5-1.6-1.5-1.3-.8-.6m58.7-.2q-.5.2-.5-.4.1-.2.4 0zm63-.2.5.6.8.8.3.7.1.4q.5.2 0-.7c-.5-1.1-1.7-2.3-1.7-1.8m-61.3.7q.4.5.6.5t-.4-.5l-.6-.4zm10.5 0c.5.6 3.6 3.7 3.7 3.6zm52.7 0q-.6.1-.1.4.3.3.2.4l.3-.1c.3-.3.4-1 .2-1zm7 .9q-1.2 1.7-.6 1.5l.5-.8q.1-.7.6-1.2l.2-.5zm-127.7-.1q-.2.4-.2 0 0-.2-.3-.1-.5-.1 1.2 1.5c1.5 1.4 1.8 1.6 2 1.2q.2-.2 0 0-.5 0 0-.1.4-.8 0-1-.2 0-.2-.4v-.3q-.3.1-.3.5v.5l-.1-.5q-.3-.3-.7-.4-.5.1 0-.4l.2-.3q-.3 0-.5-.2-.1-.3-.2-.2 0 .3.3.5t-.4-.2l-.6-.6zm18.7.7-1 1.3q.1.1.5-.4zm102.8-.8q.2.5.3 0l-.2-.1q-.2 0-.1.1m-105.8.6q-.2 1.2.4.8.3-.3.2 0-.1.4.7.1l-.1.2q-.7.8-.5.3l-.1-.3q-.3 0-.3.2 0 .5-.2 0-.2-.3-.2.1 0 .3-.3.5-.2 0 0-.1v-.2q-.2.2-.2.5 0 .4-.2.6-.3.3-.3.1l-.3.1q-.3.3-.3 0h-.2q-.2 0 0 .3h.4q.7-.4.7 0l.2.1q.3 0 .2-.3v-.2l.9-.6 1-.9q.3 0 .2-.3t.2-.2q.3 0 .2-.2t-.4 0l-.4-.3q-.1-.3-.4-.4-.5-.1 0 .2.3.4-.2.3-.4 0-.5-.4 0-.8-.2 0m35.6-.2h-.3q-.5-.2 0 .6l.9.7.4.2c0 .2.7 1 1.5 1.6q1.1 1.2 1 .5 0-.3-.4-.5-.4-.1-.1-.5.2-.4.4-.3v-.3l-.4-.4v.4q-.3 0-.3-.2c0-.3-.5-.3-.6 0q0 .2 0 0l-.2-.4c-.3 0-1.3-1.2-1.2-1.4l-.3-.2zm19.5 0c-.7.3-.2 1 .5.9h.1c-.3.3.1 1 .5.7q.2 0 0 0 0 .3.4.9t.5 1 .5 0v-.2q-.2 0-.2-.5t-.3-.7q-.3 0-.3-.4 0-1.3-.3-.7-.2.3-.2-.1-.2-1-1.2-.8m23.7 0q-.3.3 0 .3l.4-.3v-.3zm-38.6.7.3.2q.3.1.4-.1-.2-.5-.7-.1m16.8.1q-.3.5.2.5.3 0 .2.2l.1.3h.1l.1-.4c.2-.3-.4-.8-.7-.6m5.8.7q0 1.2.1.2v-.8q-.2 0-.2.6m-78-.1q.5.8.5.3l-.5-.5-.6-.4zm16 1.4-.9 1 1.7-1.6q.6-.8-.8.6m-2.2 1q-.5.2 0 .2.3 0 0 .2-.4.2-.1.2.2 0 .3-.3l.4-.3q.3 0 .2-.2-.2-.3-.8.1m111.6.5-.4.7.5-.6q.7-.9.4-.9zm-53.6 0v.9q.3.5.1.5t-.2-.3q-.1-.1-.2.2v.2q.2 0 .2.2t.3 0c.2-.2.3-1.1 0-1q0-.3.2-.3t0-.2q-.4-.2-.1-.4.3 0 0-.3l-.3.4m-62.2 5-4.2 4.7q.4-.5.6-.5 0-.2 1.3-1.4zm61.5-5-.1.7v.2c.3-.1.5-1 .3-1q-.2 0-.2.2m51.4.5.5.3.8.2.5-.1q.3-.2-.5-.2l-1-.2q-.3-.3-.3 0m-58.1.7.6.6q.2-.1 0-.2l-.6-.5-.6-.5zm12.7.9-.3 1.4.5-1.3.2-1.4zm-13.3-.5q0 .3.3.3t0 .3 0 .2q.2-.1.2.1c0 .3.6 1 .8 1l.2-.3h-.2l-.4-.4q-.4-.6 0-.2c.7.5.6 0 0-.6q-1-1.3-1-.4m7 .4q-.5 1.3-.2 1.4t.3-.8q.2-1.3-.2-.6m.4.8c-.1.5 0 1.7.3 1.5l.1-1q0-1.4-.4-.5m-5 0c0 .1 1.2 1.3 1.3 1.2l-.6-.8zm-.6.7q-.1.9.4.7.3 0 0-.2t.1-.2q.7.2 0-.5t-.5.2m-7.2.6.5.6q.4.3.4.5l.2.2q.4 0 .6.4l1.5 1.2a20 20 0 0 0-3.2-3m8.1.4.1.5.3-.2q.3-.2.6.2l.3.3c0-.3-1-1.3-1.2-1.3zm-66.5 1.3-1.7 1.9 1.6-1.5 1.8-1.9zm1-.1c-1.4 1.4-1.4 1.3-.9 1.4q.5 0 .3-.2l.1-.1.2-.2q-.1-.4.6-.6 1-.3.8-1-.2 0 0-.3.3 0 .2-.2zm67.6-.3q1.4 1.4 1.7.6.1-.5-.2 0c-.3.2-.4.1-1.2-.7l-1.2-.9zm2.3-.5q0 1.1.2 1.2.6.3.5-.2l-.2-.4q-.4-.1-.1-.3.1 0 0-.4-.4-.3-.4.1m5.6.8q-.3.7 0 .7s.4-1.2.3-1.3zm-69.6.2q.3.6-.5.8l-.7.3h.2q.2 0 .1.2 0 .3.2.4l-.2.1-.7.3q-.2.3-.5.2t0 .3l.2.4v-.2q-.1-.3.2 0c.3.2.5.1 1.6-1 1.3-1.4 1.3-1.4.9-1.5q-.5 0-.8-.4t0 .1m100.6.4-.4.6q0 .3.5-.2 1-1.2 0-.4m-.9 1.3-.2.6-.3 1q-.3.7-.1.6c.2-.2 1-2.3 1-2.4zm-30.8.7-.4 1.2v.7l.2-.6c.3-.6.6-1.9.4-1.9zm35.7-.5.3 1q.2.5.2.3l-.2-.9zm-37 2.3q-.2.1 0 .4h-.2l-.3.1q0 .3.2.3v.1l.2.2q.3 0 .4-.4v-.3q-.2 0-.2-.3.1-.6-.1-.1m30.8 1.4c-.4.4-.7 1.1-.5 1.1l.5-.7q.4-1 0-.4m-110.4.3v.5q-.1.8.1 1l.2-.9q0-.9-.2-1zm79.2-.2.3.3.2-.2q.2-.3-.3-.3-.3 0-.2.2m.7.7-.2.6-.1.6.2-.2c.3-.5.5-1.5.4-1.5zm-79.1.2q-.3.3 0 .3l.1.2q0 .2-.2.1l-.2.2q0 .3.4.2.5-.2 0 0-.3.2 0 .7.4.3.5.2 0-.2.3-.1l-.1-.5q-.5-.6 0-.8.2-.2 0-.2t-.2-.2q.2-.3 0-.1h-.3q0-.2-.3 0m117.8.6.6 1c.4.5 0-.6-.5-1.3q-.6-.8 0 .3m-47.8.7-1 1 1.2-1 1-1q-.3 0-1.2 1m38.4 0-.4.7.4-.5q.6-.7.4-.8zm10.2.9c0 .2 1 1.3 1 1.2l-.4-.7zm-5.3.4 1 1.4c.8 1.6 1 2 1.5 2.5q.8.8-.2-.6c-.3-.3-.8-1.3-1.2-2l-1-1.6q-.4 0 0 .3m-37 1.3L236 159zl1.4-1.4zm-8.3-.9q-.4.3-.3.5l.5-.4q.8-.8-.2 0m44.5.3q-.5 1.3 0 .6c.3-.3.6-1.4.5-1.3zm-5.3-.4c0 .3-1.9 2.2-2.1 2.2q-.3 0-.3.2l-.4.3q-.3 0-.4.3c0 .4 2.4-1.5 3.2-2.6l.2-.6zm7.5.5q-.2.4.3 1.1t.6.5q.2-.8-.3-1v.1l-.1.2-.3-.3q-.2-.6 0-.4h.3q-.2-.6-.5-.2m-47.8.7-.6.6q0 .2.7-.4l.5-.6zm44.2-.4q0 .2-.3.1l.2.3q.8.5.8-.3l-.1.1q-.2.5-.2 0l-.2-.4zm-98.8 2 1.5 1.3a9 9 0 0 0-1.9-1.9q-1-.9.4.5m99.4-.9q-.5.8.2.2.5-.5.2-.6zM224 162l3.1-3zm40.4-2q-1 .8 0 .3.6-.3.6-.5.1-.3-.6.2m-30.1.9q-.8.7-.5.6c.3 0 1.5-1.4 1.3-1.4zm37-.2-.4.7q0 .2-.2.1l-.6.5q-.4.6-.6.5h-.1l-.2.4-.1.3c.2 0 2.8-2.5 2.8-2.8q0-.4-.6.3m-8.4 0q-1 .4-.3.5.9-.3 1-.6v-.1zm24.2.7q2 1 1.8.6l-.3-.2q-.3 0-.3-.2l-.7-.2-1-.3q-.3 0 .5.3m-55.2.9-.3.5.2-.2.6-.4.3-.4zm48.1-.3q0 .5.7.8.7.2 0-.3-.5-.2-.5-.4 0-.5-.2-.1m9 .2q0 .3.2.1l.5.2.3.2h.2q.2.5.2 0 0-.2-.2-.3h-.3l-.4-.2q-.4-.4-.4 0m-9.8.3.9.6.9.6.8.6.9.6q.3.5.4 0 0-.3-.2-.3h-.2q-.2-.3-1.5-1l-1.5-1q-.3-.4-.5-.1m-47 .4q-.3.3-.1.3l.4-.3q.3-.3 0-.3zm49.2.1c.3.7 1 .9.8.2q0-.5-.5-.6t-.3.4m9.2 0c0 .2.5.6.6.6.3 0 0-.6-.3-.7zm-122.1.5 4.3 4c-1.7-1.8-5-4.9-4.3-4m100-.2-.2.1-.3.2q0 .5.3 0 .7-.3.4-.5zm-98.6.9.5.4c.1-.2-.6-1-.8-1zm97 0q-.6.2-.5.4c0 .1 1.3-.6 1.3-.8q.2-.4-.8.3m-37 .1.1.3.2-.2.3-.3h-.1q-.5 0-.5.2m-59.1.5q-.4 0 .3.7l.7.5-.2-.4-.2-.5q0-.7-.6-.3m57.4 2.2q-2.1 2.3-.4.6zm38.7-1.3q.3.4.4.3l.2.1q0 .2.2.1h.2q.1.3.8.7l.6.4-.7-.6c-1.1-1-2-1.5-1.7-1m14.5.2q-1.6.7-.7.7.2 0 .1-.1.1-.4 1.3-.6l.3-.3v-.2zm-63 1.7-2 2.2q0 .2 1-.8zM282 166q-1.4.8-.6.6.4 0 .6.2.4.3.1-.2 0-.6.2-.4t.4-.1.5-.2 0-.2c-.4-.2-.3-.2-1.2.3m-16 0v.5l.2.2.1-.4q-.1-.9-.3-.3m24.4.8-.8.5q-.3 0-.7.3l-.5.3.6-.2q1.3-.2 1.9-1t-.5.1m-11 0-.3.3-.8 1-1 1 1-1 1.2-1q0-.2.2-.1l.3-.2q.2-.5-.5 0m6.5.5q0 .5-.2.2t-.1 0 .4.3l.5.1.6-.1q.6-.4 0-.2h-.5q0-.2-.4-.5t-.3.2m-27.2 0c0 .2 1 .6 1 .4l-.4-.4zm2.3 0v.4q-.2.6-.5.2t-.3 0q-.2 0 .4.3.6 0 .7.3l.6.2q.5 0 .8.3l.3.2.6.1.7.3c0-.1-2-1.1-2.5-1.2q-.7-.1-.6-.8v-.3zm.9.4q0 .5.2.3h.2q0 .2.4.4.6.3.4-.2 0-.4-.5-.5l-.4-.2q-.2-.5-.3.2m25.3.4q-.2.1 0 .2l.5-.1q.4-.5-.5-.1m-1.6.8h-.2q-.2 0 0 .1l-.1.2c-.3 0-1.7.6-1.6.7.2.2 2.4-.9 2.2-1q-.2-.5-.3 0m-133 .5-.7.7q-.5.5 0 0l.6-.3.2-.2q.1-.2.3-.2l.2-.1q0-.5-.7 0m2.6 0 .5.3-.1-.3-.6-.2zm93.4.3 1 .7q.4.2-.2-.3l-1-.8zm28 .2q-.5.5-.4.6t-.3.4l-1.5 2.6c-.2.7.5-.3 1-1 .2-.6.8-1.6 1.2-2.1q1.2-1.7 0-.5m-120.5-.2q.1.4 1.5 1 1.4.8 1.2.5l-1.3-.8q-1.1-.5-1.3-.8zm115.9.6.4.4-.1-.4q-.2-.3-.5-.4zm-6.8-.1.7.5q.6.4.3.1c-.2-.3-1-.8-1-.6m-42.3 2-1.7 1.8zm49.6-1.2c0 .3.5 1 .6.9l-.3-.6zm3.8.5q-.4.5 0 .5.2 0 .1-.2l.1-.1.2-.4q.1-.8-.4.2m-62.4.5q-1.6 1.8 0 .2 1-.9.9-1-.2 0-.9.8m-54.7-.6c0 .2.2.3 2.4 1.6l1.2.5c-.3-.3-1.5-1-2-1.2l-.3-.3h-.1l-.3-.1c-.2-.3-1-.7-1-.5m82.8.4q-.3.2-.2.3l.6-.3.2-.3zm30.2-.2q.4 0 .4.4 0 .2.2.3t0-.4zq-.4 0 0 .1m-31.7.8q-.3 0-.4.4c0 .3.7 0 1-.3q.2-.3-.6 0m33.3.7q.3.7.5.7c.1-.1-.4-1.4-.7-1.5q-.2 0 .2.8m1.9-.5q-.3.6 0 .2.4-.3.4 0 .1.2.2 0-.1-1-.6-.2m4.9.2-.3.5.5-.5q.6-1.2-.2 0m-7.7-.2q.2.2.1.5l.1.2.2.2q0 .3-.2.1-.2 0 0 0 0 .3.2.2l.4.2q.3.1.1-.3c-.2-.6-.7-1.3-1-1.3zm-122.2.6q0 .5.2.4l.2-.6-.2-.4q-.2 0-.2.6m88.4-.1q-.8.4-.2.4l.3-.2q0-.1.2 0l.2-.2h.1l.2-.1q.1-.5-.8 0m2 0c0 .4.4.9.4.5q0-.3.3-.2.6.2 0-.2-.6-.6-.7-.1m-80.3.3q-.3.4 0 .1.3-.2.6 0 .7.3.5 0-.5-.6-1.1 0m51.4.3-.5.7.7-.6.6-.7zm28.1-.6q-.2.3 0 .2l.3.4.1-.2q.1-.8-.4-.4m28.1.2.5.5q.2.1 0-.2l-.5-.6zm11.4.6q-.5 1.1.2.4l.4-.6q0-.3-.6.2m-43 .4c-.6.3-1 .9-.5.7q.3 0 .3-.3t.2 0q.2 0 .2-.2t.2 0 .2-.2q0-.2.2 0 .3 0 .1-.1 0-.3-.2-.3zm32.1-.1c0 .3.7 1.5.9 1.5l-.2-.6q-.6-1.1-.7-1m-89.2.3 1.5 1.5q.2 0 .3.2a7 7 0 0 0-1.8-1.7m39.2 1.6q-1.4 1.5-.7 1c1.1-1 2.6-2.5 2.5-2.6zm.3-1.2q-.1.3-.2.1l-.6.1q-.7.4 0 .2h.3c-.2.3.3.3.6 0l.1-.7zm51 .5.1.7q.2 0 .1-.4-.1-1.1-.3-.3m8.3-.2q0 .2-.3 0l-.2.2q0 .3.6 0l.2-.3zm.5.4q-.2.4-.1.6c.1.1.5-.7.5-1zm-97.5-.1.5.6c.4.5 1 .1.8-.5q-.3-.6-.5 0 0 .5-.3 0-.5-.5-.5-.1m68.4.4-.3.6.5-.6.3-.6zm20.8-.3.1.4q.4 0 .2-.5-.1-.3-.3 0m-60.8.7-.6.8.8-.6q.6-.6.5-.8zm-18.4 1 1.5 1.3-1-1q-2.7-2.7-.5-.4m42.1-.7-.8.6 1.9-1c0-.2 0-.1-1 .4m36.2-.2.3.8.3.4c.1-.1-.4-1.3-.6-1.3zm-88 .3.7.7.6.5-.6-.6q-.7-.8-.7-.6m64.7.2v.4q-.3 0-.1.3 0 .3-.3.2-.4 0-.3.3t-.1 0l-.6.2h.5q1 0 1-.6l.2-.3q.2-.3 0-.5-.5-.5-.3 0m2 .2q-1.2.6-.5.4c.3 0 1.4-.8 1.2-.8zm29.7.3-.3.8c.2 0 .9-1.4.7-1.5zm-124.7-.1.9.3-.5-.3-.9-.4zm15.4-.3c0 .3 2.1 1.5 2.4 1.3l-.4-.2q-.3 0-.4-.3 0-.2-.1 0l-.8-.5zm-11 .5q0 .3.2.3v-.3q0-.4-.2-.4t0 .4m-2 .5q.1.3.8.4l.1-.2h-.3l-.2-.1q0-.3-.2-.3t-.2.2m28.7 1.5 2.8 2.6zm22 .2-1.4 1.6 1.3-1.3zm-48.4-1q0 .3.5.3l.8.1q.3.2.2 0c-.4-.4-1.5-.7-1.5-.4m84.5.2-.6.3.7-.1q1.7-.3 1-.5zm-81.8.5.7.3q.9.2 0-.2-1.2-.5-.7-.1m53.4 1.7q-1.3 1.3-.5.6 2.2-2 2-2.1zm13.1-1.2q-.3.2-.2.3l.6-.3.2-.3zm-13 .3-.3.1q-.2 0-.2.2c0 .3.5.1.6-.2q.2-.6-.1-.1m23.1.1q-.9.4-.1.2.6 0 .8-.3.4-.4-.7.1m-11.6.4q-.4.2-.2.3l.6-.3c.4-.4 0-.4-.4 0m10 0q-.2.3 0 .4l.2-.1.4-.3q.3 0 0-.1zm40.6.2q-.5 1.3 0 .4.3-.3.3-.7 0-.2-.3.3m-102.2 0q0 .3.5.3t.4-.2h-.4zm12.2 0c0 .3.6.5.8.4l-.2-.1q-.2 0-.1-.2l-.2-.2q-.3 0-.3.2m-12.8.2q-.3.3-.3.5t-.2.2l-.1.2q0 .4.6.3l.5.1q0 .3.4 0h.4v.4c0 .3.8-1 .8-1.3 0-.2-1.2-.2-1.6 0h-.3v-.2q.3.1.2-.1 0-.6-.4-.1m-6.4.2.8.1q.5 0-.1-.1-1.2-.5-.7 0m28-.2 2.6 2.5c-.5-.7-2.6-2.7-2.6-2.5m8.4 1-.9 1.1 1.9-1.8q.6-1-1 .7m20.4-.8q-.5.3-.5.5 0 .4.2 0h.2l.5-.4q.5-.6-.4-.1m9.7 0q-.5.1 0 .1l.6-.1q.3-.2 0-.2-.4 0-.6.2m-8.4.1-.2.5q0 .4-.4.4-.4.1 0 .4.5 0 .3-.1 0-.3.3-.2.4.1.2-.4-.4-.6.2 0 .6 1 .2.7l-.3.1c-.1.2.8.1 1.5 0q.7-.5 0-.5-.6.1-.4-.2.2-.5-.1 0-.6.6-.5.2c.1-.3-.5-1-.8-.9m-3 1q-.5.4-.7.3l-.4.2-.4.6 1.6-1q.5 0 .5-.3t.2 0l.2-.1q.1-.6-1 .2m-46.8 0q-.3.4.1.3.4 0 .3-.3 0-.5-.4 0m-4.2.1.7.2-.1-.2-.7-.1q-.3 0 0 .1m16.9.6.8.8-.6-.8-.9-.8zm87.2-.3q-.5.6.2 0t.2-.5q-.2 0-.4.5m-102.7.1.5.2q.4 0 0-.2l-.5-.2q-.5 0 0 .2m7 .3 1.3 1q.5.5.3 0l-.2-.3-.6-.4-.4-.2-.2-.1-.6-.4q-.4 0 .4.4m48.5-.3q0 .2.2.2t.4-.2l-.2-.2zm-54.5.2 2.3.8-.1-.2c-.2-.2-2.4-.8-2.2-.6m53.2 0q-1.5.6-.1.5 1-.3 1-.5zm47.4.1q-.1.5.5.1.3-.1 0-.2t-.5.1m-72.7 1.3q-1.3 1.4-.2.4c.7-.6 1.3-1.4 1-1.4zm21.7-.3-.8.4c.1.1 1.5-.3 1.6-.5v-.2zm-1.5.5h-.5l-.3.2q-.2.2.5.1.5 0 .7-.3.1-.4-.4 0m-13.2 1.9-.3.4c.6-.5 1.3-1.1 1.1-1.1zm-16.7.2.5.7q0 .2 0 0l.6.3q.3.4.4.3c0-.3-1.7-1.9-1.9-1.9q-.2 0 .4.6m.5 1.7h.7zm37.4 0h.8zm76.8 0q.4.3.8.3l.8.2q.1.1.2 0c0-.3-.9-.6-1.5-.6q-.6 0-.3.2m-157.4 1.2q-.7.7-.8 1v.1l1-1q1.6-1.7-.2-.1m159.4-.6q0 .2.1.1l.6.4.9 1 .4.5-.4-.6c-.6-1.1-1.6-2-1.6-1.4m.4 1.1q.2.4.4.3t0-.2-.1-.3l-.2-.1q-.4 0 0 .3m1.8 2.8-.1 1.2c-.2.3-.3 1 0 1.2l.3-1.8-.1-1.5-.1 1m-154.3 3c.4.2 10.8.2 32.5.2h71.2q39.5 0 39.3-.2 0-.2-71.8-.2c-50.1 0-71.6.1-71.2.2m144.8 0h1.4c-.3-.2-1.6-.2-1.4 0m-208.4.8q-.5.2-.5.4t.2 0 1-.2q.3 0 .2-.2t-.9 0m52.9 0-1.4.1h3.4q0-.3-2-.1m9.9.8v.3-.7zm-9-.2.2.2h.3q0-.2.4-.1l.2-.1c0-.2-.9-.2-1 0m163.6.4v.3-.7zm-219.7.8-.3.6.4-.5q.6-.6.4-.7t-.5.6m-.5 1c-.3.4-.2 2.7.2 3.2q.4.5.1-.2a5 5 0 0 1-.1-2.6q.4-1.1-.2-.4m211.5 1-.4 1.2c-.4.8-.4.8-.2.8a6 6 0 0 0 .8-2.4q-.1-.1-.2.4m-146 2.3-.1 1v.8q.3.5.2-1V202zm145 .8q-.3.3-.1.3l-.2.5-.2.6.7-1.2q.3-.8-.2-.2m8.2.7-.2.7q-.5 1.1-.2 1c.2 0 .6-1.7.5-1.9zm-205.5.1h1.3zm10.5 0h.8zm7.7 0h.7zm178 1.4-.3.8.4-.5.3-.7zm-199 1q0 .4.3.4c.2 0-.1-.7-.4-.9q-.1 0 0 .4m207.3.2q-.2.8.3 0v-.5zm-206.8.7.4.6c.4.8 1.3 1.8 1.1 1.3q0-.4-.3-.5l-.5-.8-.7-.8q-.1 0 0 .2m-1 .3c.1.3 1 .4.8 0l-.5-.2q-.4 0-.3.2m48 5.8v2.8zm159.3-5.3q0 .2-.2.1l-.2.2q-.1.5.4 0l.2-.4zm-205.7 1.2q-.3.6.2.3.2 0 0-.4 0-.3-.2 0m205 0v.2l-.1.3q-.3.3-.3.5c0 .3.6-.6.7-1q0-.5-.3 0m-203.8 1c.4.6.9.9.6.3q-.2-.5-.5-.6t0 .2m-8.6 1.2.5.8q.3.3 0-.4-.8-1.3-.5-.4m201.3.4-2 2.2q-3 3.1-1.7 2 2.1-1.8 2.1-2.2l.7-.7c.8-.7 1.4-1.5 1.1-1.5q-.2 0-.2.2m-200 1.7q0 .5.7 1.1l.3.5.7.8c.8.8.7.7-.6-1.2-1.2-1.6-1.4-1.7-1.2-1.2m198.3 1.2q-.9 1-.2.6t.6-.9zm8 1.8-1.5 1.8q-.6.7-.4.7.4-.1 1-.8zm-10.9 0-.8.8-.6.6.8-.5.8-.8q.1-.4-.2-.1M109.4 218l.7.7.6.3zm179.3.8-.7.6zq1-.6.7-.6zm-179 .3.3.2q.1 0 0 .4 0 .3.2.2h.5q.3.5.1 0c-.1-.4-1-1-1-.8m1.3.4q.2.4.4.3l.2-.1-.5-.4q-.5-.3 0 .2m187.6.8-1 1q-.6.3-.5.5l1.3-1 1-1q-.3 0-.8.5m-197.3.9a16 16 0 0 0 4 3.7l-.4-.5zm185-1q-.6.2-1 .7l-1 .7q-.2.2.4-.1l.8-.6q0-.2.3-.2l.7-.4q.9-.6-.2-.1m-138.6 1.7v1-2zm133.6 1.3q-1.7.9-.5.4c.7-.2 1.6-.7 1.6-.8s0-.2-1.1.4m12 1.6 1.8-1.3zM105 223.5l.6.5q.7.6.4.1 0-.3.1-.2.3.2.2 0-.2-.3-.5-.1-.3 0-.2-.1.1-.3-.3-.3zm174.5.6q-1 .7.2.2.5-.2.5-.4.2-.3-.7.2M148 225.2v.4q.2-.4 0-.8zm-28.9-.4c.1.2 1.9 1.2 2 1.2l-.3-.4c-.6-.4-1.8-1-1.7-.8m-12.5.8c.5.6 1.2 1.1 1 .7l-.7-.7-.6-.5zm167.6.7-.3.2.8-.2q.8-.6-.5 0M148 227.5v.8-1.5zm-25.7-1c.3.3 1.6.8 1.6.7l-.9-.5q-.8-.3-.7-.1m-14 .3 2.1 1.5s-1.8-1.5-2.3-1.7zm47.5.5q0 .7.1.4v-.8zm116.6-.5-.5.1q-.4 0-.6.3t.5 0q1-.4.8-.5zm-148.3.5q0 .2.9.6c1.3.5 1.3.5.9.2l-1-.5q-.3 0-.5-.3zm145.5.4-1 .3q-1.1.1-.7.4c.2 0 2.1-.5 2.3-.7q.3-.3-.6 0m19 .2q0 .3-.1.1l-.5.3q-.4.4-.1.4l.3-.3q0-.2.4-.1.3 0 .3-.3l-.1-.3zm-22.1.7-.7.2c-.8.1-1.7.5-1.2.5s2.7-.7 2.3-.8zm-3.2.9q-.9.4.5.1.4-.1.3-.2-.3-.1-.8.1M112 230l1.4.8v-.1l-.2-.2q0-.3-.2-.1h-.2c0-.2-1-.9-1.3-.9zm24.9 1.8c.1.2 2.2.7 2.4.6l-.9-.4zm8 1q-.4.1.1.3h.6c.3-.3-.4-.5-.8-.3m134.5 0-.4.1-1.3.6.8-.1.8-.2.3-.3q0-.5-.2-.1m-2.8 1q-.5.2 0 .3.3 0 .3-.2v-.3zm-27.2.4q-1.1.7 0 .2 1.2-.6.7-.5zm25.8.3q0 .2-.3.1h-.4q0 .3-.3.2t-.2 0q0 .3-.2.2h-.3q0 .4 1.6-.2.6-.3.3-.4zm-2.4.8q0 .3-.4.3c-.6 0-1.6.3-1.5.4s2.1-.4 2.3-.5l-.1-.2zm-27.2 1q-.7.5-.6.6c.1 0 1.2-.5 1.4-.8.1-.2.1-.2-.8.3M125 236l1.2.4c.5 0-.8-.6-1.5-.7q-.5 0 .3.3m144.2 0q-.5.1-.4.2l1-.3.4-.2zm-139.5 1.7.6.2h.4l-.6-.3q-.5 0-.4.1m132.8 0-.6.2h.6l.8-.3q.2-.1-.8 0m-131.3.4c0 .1 1.2.6 1.9.7h.6l-.6-.2zm128.3.4-.6.3q-.2.2.3 0 1.6-.4.3-.3m-100.7.2h1.1zm-24.5.3c.1.2.9.3 1 .2l-.5-.3zm27.4 0q.3.3.7.2h.4l-.4-.1q-1-.5-.7 0m96.6 0-.4.1-.7.2-.5.3.5-.1.8-.1q.3 0 .5-.3.1-.6-.2-.1m-3.2 1.2-.6.2-.3.2q-.3.3-.5.2l-.2.1.1.2 2.5-1.3q0-.2-1 .4m-114.5 0 .8.1q.8 0 1.1.2.4 0 .2-.1c-.3-.3-2-.5-2-.3m7.7.5q0 .3.2.2l.2-.2q.2.1.2 0l-.3-.3q-.5-.2-.3.3m18.2-.4 1.4.8a12 12 0 0 1 4 3l1.5 1.3-1-1.2c-1.6-1.6-1.5-1.6-1.8-1.6l-.2-.2a9 9 0 0 0-3.9-2m-23.3.2h.9l-.4-.1zm108.8.2q-.4.6.3.5.4 0 .4-.4c0-.4-.6-.5-.7 0m-105.8 0c.2.2 1 0 1 0q0-.2-.7-.2t-.3.2m2.5.7q0 .5.4.5.5.1.2-.4-.4-1-.6-.1m104 0h-.2l-1.4.8c0 .2 1.6-.7 1.7-.9v-.2zM148.2 243q0 .9.3 1.1.3.5-.2-1.4-.3-1-.1.3m90 .2-.5.8-.4.6-.4.7q0 .3 1.7-2.3.6-1.1-.4.2m-88.8 0q0 .5-.2.5-.4 0 0 .6c.3.3 1.2.3 1 0h-.3c-.3.1-.6-.4-.3-.5v-.5q-.1-.7-.2 0m88.9 1q0 .3-.3.4-.3 0 0 .3t.3.1v-.5q.3-.3.1-.5zm9 .5q-.9.7-.8.9l1-.8q1.6-1.6-.2 0m-98.5-.1.4.3 1 .7 1.2.6h8.2l-4.2-.2c-4.4 0-4.9 0-5.9-1.2q-.6-.6-.7-.2m96.7 1.8q-.9 1.1-.1.4c.5-.5 1-1.2.8-1.2zm-9.5.2q-.4.7-.4 1l.4-.7q.9-1.9 0-.3m-75 0 2 .6q1 .3-.2-.3l-1.6-.4-1-.1zm2.5.3h.6q.3.3.3 0c0-.3-.7-.3-.9 0m.2.4 1 .6 1.3.9.5.4-.5-.5c-.5-.5-2.5-1.8-2.3-1.4m11.5.8 1 2.2c.2 0 .2 0-.4-1.3zm60 .5-.5 1v.5l.5-1.2.2-.4q.2-.3 0-.4zm8.3 1c-1 2-1.6 3.5-1.2 3.5h.1c-.2-.3 1.1-3.5 1.8-4.3q.3-.3.1-.4-.2 0-.8 1.2m-.6-.2-.2.5.3-.2q.5-.6.2-.7zm-65.8 4.8v.3-.7zm56.8.1q0 .8.1.4v-.8zm0 3.4v.5-1zm0 1.8.3.7q.2.2 0-.3-.2-1.2-.2-.4m-57.2.2-.1.8-.1.5.2-.4zq0-.4 0 0m-8 .2q-.2.3-.3 1-.1 1 .4-.7.3-.9-.1-.3m73.5.7c.1.7 1.3 3 1.5 3 .2.2-.4-1.2-.8-1.6l-.2-.7-.3-.8q-.4-.5-.2.1m-74.5 2-.6 1-.4.7q-.3.7.1.2a11 11 0 0 0 1.4-2.8zm.8-.5c-.2.4-.2 1.6 0 1.6v-.4q0-.6.2-.2c.3.2 1-.3.7-.5h-.2c0 .4-.5.1-.6-.3zm73.2.2q0 .3.2.5.2 0 0 .4-.5.4.6.4.7.1.3-.6-.2-.6-.5-.4-.4 0-.5-.2 0-.4 0 0m-66 1.4q-.8 2.2 0 .2l.4-1.2zm-8.1 0 .2.6q.5.4 0 0l.1-.6q.3 0 0-.1zm76.8 1.2.6.6-.7-1q-.3-.2.1.4m-1.2.1q.3.5.8.5t.2-.3-.3 0l-.3.1q-.2 0 0 0 0-.5-.6-.7zm-79.1 2.3-1.6 1.8zm10.8-1.8q-.2.4 0 .4c.2 0 .5-.5.3-.7zm61 .6.7 1-.3-.7q-1-1.9-.3-.3m-62.3.7v.3c-.5-.2-1.2.2-1 .5q.3.3.1.5 0 .2.5-.4 1-1 .4-1.1zm.5.1c-.3.5-.4 1.2-.1.9l.5-1.3zm62.8-.1c0 .5.9 1.4 1 1q.3-.2 0 0l-.2-.1.2-.3q.4-.3-.3-.7-.9-.4-.7 0m1 .5q-.2.4-.6-.1t.2-.2zm-1.1.5.2.6q.1.4.4.4.6.4-.2-.6zm-64.8.6q0 .4.2.4.3.1.1.4 0 .2.1 0 .5-.1 0-.7-.3-.4-.4 0m66-.2c-.2.3 0 .9.3.7h.1c0 .4.3 1 .5.8l.1.1q0 .3.2.4.2 0 .1-.4l.1-.4.2-.1-.5-.2h-.4q0-.2.3-.2l.2-.2q-.2-.3-.4-.1l-.1-.2q0-.3-.2 0-.3.4-.2-.2 0-.3-.3 0m-65.2.9-.3.5q-.3.3 0 .2c.3-.1.9-1 .6-1q-.3 0-.3.3m65.2.5.5.7q.6.4-.2-.7l-.6-.7zm-65.8.6c-.4.2-2.1 2.4-2 2.3l2.2-2.5zm-12.6.6-.6.4.7-.2q1.5-1 0-.2m-2.3 1q-.7.4-.4.4c.3 0 1.2-.5 1.2-.6q.2-.5-.8.2m-1.2.5-.5.1-.7.3q-.6.2 0 .2c.7-.1 1.6-.5 1.6-.6q-.1-.3-.4 0m.3.5q0 .3.5.2.3-.2 0-.3zm-3.5.5q-.7.2-.7.4t.4 0l.9-.2q.5 0 .5-.3t-1.1.1m.7.5q-.2.2-.5 0v.2q.3.3.7 0 .7-.6-.2-.2m105.3 0h.7l-.3-.1zm-91 1-1 .7zq1-.9.9-1zm94-.6h.7l-.3-.1zm4.3.3h.6l-.3-.1zm1.7.1q.7 0 .9.3h.2q-.2-.5-1.3-.4-.6 0 .2.1m-128 .8q-.6.5-.7.8 0 .2.6-.4l1.1-.8q.5-.1.2-.2zm130 0 .2.3q.2.3-.3.3h-.5q0-.2-.2-.1l-.2.3c0 .2 1.1.1 1.4-.1l.5.2q1 .6-.1-.5-.9-.9-.8-.4m-103.9 1q-.6.5-.3.4c.4-.2 1.2-1 1-1zm-26.8.3v.3q.2 0 .2.2-.2 0 .3.4.6.3.2 0l-.2-.8q.1-.7-.5-.1m-.7.3-.2.5.4-.3v-.6zm106.4-.2c.2.3 1.5 1 1.3.8l-.8-.6q-.7-.4-.5-.2m25.2 0q.3.2 0 .2t0 .2l.4.2q.2 0 .2.2t.2 0q.2-.8-.7-1-.4 0 0 .2m1.2.4.1.4v.3q0 .4.1.1.3-.1 0-.7-.2-1-.2-.1m-107 .2q-.6.4 0 .2.4 0 .6-.4.5-.6-.6.2m82.6.7.7.4q.2 0-.3-.4l-.8-.3zm-85.4.8-1.6 1c.3 0 3.2-1.5 3.4-1.8v-.1zm110-.5c0 .4.5.7.5.3q0-.5-.2-.5zm-23.7.1.7.4.6.3-.5-.4q-.8-.5-.8-.3m-89.6 1.7q-1 .5-.8.5s.7-.1 1.2-.4q1.8-.9-.4 0m42.7-.3-.8.1.8.1h3.9l3.1-.1-2.6-.1zm7.5 0q-.1.4.7.2 1.4-.1.4-.2l-.8-.1q-.3-.1-.3.2m42.6 0 .4.2.9.3h.6s-1.4-.6-1.6-.5l-.2-.1q0-.2 0 0m-51.8.1q-.6.4 0 .5l.2-.3v-.3zm11.2.2q.9.4.8.1l-.2-.2-.7-.1q-.3 0 .1.2m-72.5 4.4v2.2zm59.3-4h.3l.5-.1q0-.2-.3-.2zm-1.1.2q-.2.2-.5.1l-.7.2q-.5.3 0 .2l1.2-.2.9-.3c0-.3-.8-.3-1 0m16.9 0 .5.2q.6 0 .2-.2-.8-.4-.7 0m-57.5.3-1.3.2q-.5 0-.4.2c.1.2 1.8-.1 2.2-.4q.7-.6-.5 0m98.4-.1 1.9.5v-.1l-1-.3q-.9-.3-1-.1m-60.2.5-.5.2h.5l.8-.4q.4-.3-.8.2m62.8 0v.4q.5.1.3-.4zm-104.3.3h-1q-.7 0-.3.1.7.4 1.5 0l.3-.3zm106.1 0c.2.2 1.6.3 1.6.2q0-.2-.9-.2zm-110.9.3-1.5.1v6.8-6.7h2.6q2.3 0 1.9-.2zm71 0c.5.5 3.6 1.5 3.6 1.2l-1-.4-1.5-.5zm42.4 0q-1.2.3.5.2 1.1 0 1.2-.2t-1.7 0m3.4 0q0 .3.2.2h.4q.2.3.4.1.5-.4-.6-.4-.6 0-.4.1m-74.9 1q-.4.3 0 0l.7-.2q.5-.1 0-.2zm76 .3v.3h-.3q0-.3-.2-.2c-.2.1-.2 1.3 0 1.4q.3 0 .1.3l.1.2q.4-.2 0-.5c-.2-.2.1-.9.5-1.1q.2-.2 0-.4t-.2 0m-77.6.3c-.7.3-2.2 1-2.4 1.3l-1 .7-1.1.7q0 .2.2 0l3.5-2q0-.2.2-.2l1-.4q1.4-.7-.4 0m34.8 0 .6.5q1.4.4.2-.4-1-.5-.8-.1m1.5.7 2.7 1.5-.2-.3q0-.3-.3-.2l-.7-.4c-.5-.4-1.5-.8-1.5-.6m-37.3.4v.3l-.2.4q-.2.2.2.5c.3 0 .6-.8.5-1q-.4-.5-.5-.2m-1.7 1.3.3.4h.1q.2-.3.5-.1l.2-.1-.8-.3q-.7 0-.3.1m42-.1c0 .2 1 .8 1.2.8l-.3-.3q-.5-.2-.6-.5l-.2-.1zm37 3.7c0 2 .1 3.6.2 3.4.2-.4.2-6.7 0-7zm-80.3-3q-.1.2 0 0l.4.1q.2.2.2 0-.2-.6-.6-.1m-1.9.3q0 .2-.5.4l-.4.4.5-.2q.9-.7.5-.8zm18.5 1q-2 .4-.2.3l2.9-.4c.1-.2-1.8 0-2.7.1m7.9 0 1 .1 1.2.2q1.2 0 .3-.1zm4.3.7 1 .3 1.3.3c-.4-.3-2.6-.9-2.3-.6m-22 1q-.7 1.1.6.7.8-.2.3-.4t-.6-.2v-.2q.1-.7-.3.1m-.6 0q0 .3-.6.4-.6 0 0 .1 1-.1.8-.7zm25.8-.1c0 .1 1.4.7 1.7.6l-.6-.4q-1.1-.5-1-.2m-23.3.7h-.3l-.6.2-.4.2-.1.1q0 .4 1.3-.3.5-.1.3-.3h-.2m28.2 0q0 .3-.3.2l-.1.3q0 .4.3 0l.4-.6zm-2.4.2.6.3-.3-.3-.6-.2q-.2 0 .3.2m-29.5.3-.2.5-.2.4q0 .2.1 0 0-.2.3-.2l.2-.2q0-.4.1-.1.2.1.6-.2.7-.3.2-.5-.4 0-.6.2t-.3 0q-.2-.5-.2 0m32 .3q-.2.2.3.3t.3-.2q-.4-.5-.7 0m-30.4 0-.4.3q0 .4.7 0t-.3-.2m-.8.4q0 .2-.2.1l-.2.1q0 .2-.1.1l-.6.3-.5.3h-.1q0 .3-.3.3l-.7.4-.5.4.5-.3.6-.2c.6-.1 2.7-1.7 2.2-1.7zm-51.6 2.6q0 1.6.1.9v-1.9zm95.7-1.5q0 .3.3.4t0-.3q-.4-.8-.3 0m-58 .3q-.5.5.3.3.4-.1.1-.4zm-1 .6-1 1c-.3.5-1 1.4-1 1.6l.8-.8 1.7-2.4zm60.5-.6 2 2.6-.3-.6c0-.2-1.7-2.2-1.7-2m28.7 1.4v.3-.7zm-28.5.2v.7l-.2.2q.2-.1.5.2t.1 0q0-.4.2-.4.6 0 0-.6-.4-.3-.3-.4l-.1-.1q-.2 0-.2.4m-52.6 2-1.1-.2 2.7-2.6zm-37-.3v.2l2-.2q3.2 0-.5-.1zm12 .1h.7zm3 0h.8zm1.7 0h1.3zm2.9 0h1zm3.9 0h1.7zm70 0h1.6zm5.9 0h.7zm3.6 0h1.8zm11.6 0h1.6zm-80 1.4c-.3 0-.7.7-.6 1.1l-.3.1q-.3 0-.2.2.2.7 1.1-.6l.6-.9zm.3.8q-.5.4-.1.4.3 0 .5-.3.5-.7-.4 0m49-.2.7.5q.6.3.4.4-.3 0 0 .3.5.6.4 0v-.5l-.4-.2-.4-.3c0-.2-.6-.4-.6-.2m-49.7 1c-.5.5-.7 1.1-.2.7.3-.2.8-1 .6-1zm-1 0c.1.2-1.1 1.6-1.4 1.6q-.2 0-.3.2h.3q.3 0 0 .2-.6.8.3 0 .8-.6.3.4-.2.3.2 0 .3-.2.2-.4l.2-.3.3-.5v-.3l-.2.4q0 .3-.2.3-.4 0 .2-.9.5-.5.2-.7m50.9 0q0 .4.3.4l.2.3q0 .3.2.3.5 0-.4-.8-.5-.5-.3-.1m-51.8 0-.1.5q-.1.4 0 .4c.3 0 .4-.8.1-1zm93.4.6q-.2.3 0 .4.3.3.2-.4t-.2 0m-40 .5.4.8q0 .2.2 0 .3 0 .1.1v.3q.6-.1.3-.7v-.4l-.6-.1-.3-.3q0-.3-.4-.3-.3 0 .2.6m-.5.2.3.4q.3.2.3.5c0 .3 1.3 1.6 1.8 1.8q.4.2-.2-.3l-1.4-1.6q-.9-1.4-.8-.8m40.3.3q0 .2.2.3l.2-.3q0-.3-.2-.3t-.2.3m-1 0q.2.3 0 .3t-.1.1l-.3.5-.4.7q.1.3-.4 0-.6-.6-.1 0 .2.4.5.4.2-.1 0 .1c-.2.8 1.1-.1 1.6-1q.4-.8-.1-.4l-.2.4c.1.2-.8 1-1 .8l.3-.6.3-.4v-.4q.3-.4 0-.5m-131.8 1c.2.4 1.4 1.6 1.4 1.4l-.8-1q-.7-.6-.6-.4m38.6.6-.3.6c.2 0 1.1-1 1-1zm-35.2.6q.1.3.4.4v-.3q-.3-.4 0-.1.6 0 .2-.1-.9-.6-.6.1m-1.3.6c.6.3 22.2.4 22.5.1H153a102 102 0 0 1-11.8-.1m127.6 0-1.9.3h-1.3 1.2c1.2.1 2.6-.2 2.6-.5q.2-.3-.6.1m-104.8.2c.2.2 1.5.2 1.7 0zm87.9.1"/><path d="M146.3 104.2q-.9 1 0 .2.4-.5.6-.4l.1-.2q.2-.7-.7.4m66.2 9.3q-.7.1.2.2.5 0 .5-.2l-.2-.2zm1.6.1h.7zm-11 .6h.9zm49.2 9.2q-.2.1.3.3.8.1.1-.2-.4-.2-.4 0m16.9 39q-.6.4-.6.6l.4-.2q.4-.4.6-.3.2 0 0 0l.2-.4q.4-.6-.6.3m-3.4 2.3.6.5q.8.5.4 0l-.5-.3-.3-.2q-.1-.2-.2 0m15.5.8c.1.1-.8.7-1 .7q-.2 0-.3.2-.1.4.6-.1 1.4-.7.8-.9-.2 0 0 0m-43.4 8.1-.7.5.8-.3.8-.5zm-86.3 14.5c-.1.2 8.2 0 8.4 0 0-.2-1.8-.2-4.1-.2zm22.4 0h.7q.2-.2-.4-.2t-.3.1m19 0q-1 .2.1.3.8 0 .6-.2l-.1-.2zm14.1 0h2.7q0-.2-1.3-.2zm6.7 0c.2.2 4 .2 4.2 0l-2-.1zm7.4 0h.7zm27.4.1h1q.5-.2-.5-.2t-.5.1m3.2 0h1.4zm3.7 0h.8zm2 0h1.5zm5.2 0h.8zm39.2 0c.6.1 5 .2 4.8 0zm-71.4 8.2h.8zm3 0h2zm3.8 0h1zm2.5 0h1zm5.5 0h.6zm35.4 0h.9zm2.7 0h1.7zm5.1 0h2zm10.3 0h.7zm-143 3.5q0 1.2.1.6V199zm0 6v.5-1zm0 4v.8-1.7zm0 5v.5-.9zm0 8.3v1.4zm0 9.8v2.5zm-10-.2.1.3.3-.3q0-.3-.2-.3zm6.7 13.5h.9zM271.3 276q.6 1 .5.5l-.4-.7-.4-.4zm-132.9 2.6q0 1.1.1.6V278zm133.7 2q0 2 .1 1zm-72.5-1 .4.2.4-.2-.4-.1zm-1 .2q0 .2.3.2l.4-.2-.3-.1zm-48.5 1.6.6.2h.6q0-.3-.6-.3zm110.3 0h.9zm2.5.3h.8l-.4-.1zm1.2 1.7v2q.3.6.2-1.6 0-3.5-.2-.4m8 7.7v4zm-95.3-.3q-.2.5-.6.5 0 .2-.4.6c-.7.8-.2.5.6-.4q.8-.8.6-.8t-.2.1m87.3 2.8v1.6q.3.2.2-1.2 0-3-.2-.4m-1 2h.6zm-119.9 7.9h1.8l-1-.1zm122.7 0h1.7zm-80.6-115.7h1.5zm32 0h1.5zM148 212v.4-.7zm0 9.7v.4-1zm13 73.9h1.2l-.6-.1zm99.4 0h1zm-122 .8v.3-.7z"/></g></svg>